<svg xmlns="http://www.w3.org/2000/svg" width="1150" height="850" font-family="Helvetica,Arial,sans-serif" font-size="11"><rect width="100%" height="100%" fill="#fff"/><text x="70" y="20" font-size="14" font-weight="bold">V3 — 12-piece boot (contact geometry) — whole body (drop1m)</text><rect x="70" y="40" width="830" height="140" fill="none" stroke="#999"/><text x="74" y="36" font-weight="bold">heights (m): whole-body COM, pelvis origin, right knee centre</text><line x1="102.11309523809521" x2="102.11309523809521" y1="40" y2="180" stroke="#bbb"/><text x="104.11309523809521" y="177" fill="#888" font-size="9">impact</text><line x1="235.50595238095238" x2="235.50595238095238" y1="40" y2="180" stroke="#bbb"/><text x="237.50595238095238" y="167" fill="#888" font-size="9">free rise ends</text><line x1="242.91666666666666" x2="242.91666666666666" y1="40" y2="180" stroke="#bbb"/><text x="244.91666666666666" y="157" fill="#888" font-size="9">peak</text><line x1="457.827380952381" x2="457.827380952381" y1="40" y2="180" stroke="#bbb"/><text x="459.827380952381" y="177" fill="#888" font-size="9">heel down</text><line x1="70" x2="70" y1="180" y2="184" stroke="#999"/><text x="70" y="194" text-anchor="middle" font-size="9" fill="#666">0.40</text><line x1="129.28571428571428" x2="129.28571428571428" y1="180" y2="184" stroke="#999"/><text x="129.28571428571428" y="194" text-anchor="middle" font-size="9" fill="#666">0.50</text><line x1="188.57142857142856" x2="188.57142857142856" y1="180" y2="184" stroke="#999"/><text x="188.57142857142856" y="194" text-anchor="middle" font-size="9" fill="#666">0.60</text><line x1="247.85714285714283" x2="247.85714285714283" y1="180" y2="184" stroke="#999"/><text x="247.85714285714283" y="194" text-anchor="middle" font-size="9" fill="#666">0.70</text><line x1="307.1428571428571" x2="307.1428571428571" y1="180" y2="184" stroke="#999"/><text x="307.1428571428571" y="194" text-anchor="middle" font-size="9" fill="#666">0.80</text><line x1="366.4285714285714" x2="366.4285714285714" y1="180" y2="184" stroke="#999"/><text x="366.4285714285714" y="194" text-anchor="middle" font-size="9" fill="#666">0.90</text><line x1="425.71428571428567" x2="425.71428571428567" y1="180" y2="184" stroke="#999"/><text x="425.71428571428567" y="194" text-anchor="middle" font-size="9" fill="#666">1.00</text><line x1="484.99999999999994" x2="484.99999999999994" y1="180" y2="184" stroke="#999"/><text x="484.99999999999994" y="194" text-anchor="middle" font-size="9" fill="#666">1.10</text><line x1="544.2857142857142" x2="544.2857142857142" y1="180" y2="184" stroke="#999"/><text x="544.2857142857142" y="194" text-anchor="middle" font-size="9" fill="#666">1.20</text><line x1="603.5714285714286" x2="603.5714285714286" y1="180" y2="184" stroke="#999"/><text x="603.5714285714286" y="194" text-anchor="middle" font-size="9" fill="#666">1.30</text><line x1="662.8571428571429" x2="662.8571428571429" y1="180" y2="184" stroke="#999"/><text x="662.8571428571429" y="194" text-anchor="middle" font-size="9" fill="#666">1.40</text><line x1="722.1428571428572" x2="722.1428571428572" y1="180" y2="184" stroke="#999"/><text x="722.1428571428572" y="194" text-anchor="middle" font-size="9" fill="#666">1.50</text><line x1="781.4285714285716" x2="781.4285714285716" y1="180" y2="184" stroke="#999"/><text x="781.4285714285716" y="194" text-anchor="middle" font-size="9" fill="#666">1.60</text><line x1="840.7142857142859" x2="840.7142857142859" y1="180" y2="184" stroke="#999"/><text x="840.7142857142859" y="194" text-anchor="middle" font-size="9" fill="#666">1.70</text><line x1="900.0000000000002" x2="900.0000000000002" y1="180" y2="184" stroke="#999"/><text x="900.0000000000002" y="194" text-anchor="middle" font-size="9" fill="#666">1.80</text><text x="64" y="50" text-anchor="end">1.23</text><text x="64" y="180" text-anchor="end">0.123</text><path d="M70.0,40.0L72.5,42.1L74.9,44.2L77.4,46.3L79.9,48.5L82.4,50.6L84.8,52.8L87.3,55.1L89.8,57.3L92.2,59.5L94.7,61.8L97.2,64.1L99.6,66.2L102.1,66.8L104.6,67.5L107.1,68.2L109.5,68.9L112.0,69.6L114.5,70.3L116.9,71.1L119.4,71.8L121.9,72.6L124.3,73.5L126.8,74.3L129.3,75.1L131.8,76.0L134.2,76.9L136.7,77.8L139.2,78.8L141.6,79.7L144.1,80.7L146.6,81.7L149.0,82.7L151.5,83.8L154.0,84.9L156.5,85.9L158.9,87.0L161.4,88.2L163.9,89.3L166.3,90.5L168.8,91.7L171.3,92.9L173.7,94.1L176.2,95.4L178.7,96.7L181.2,98.0L183.6,99.3L186.1,100.6L188.6,101.9L191.0,103.3L193.5,104.7L196.0,106.1L198.5,107.6L200.9,109.0L203.4,110.5L205.9,112.0L208.3,113.5L210.8,115.0L213.3,116.5L215.7,118.1L218.2,119.6L220.7,121.2L223.2,122.8L225.6,124.4L228.1,126.0L230.6,127.7L233.0,129.3L235.5,130.7L238.0,131.8L240.4,132.3L242.9,132.8L245.4,133.2L247.9,133.7L250.3,134.1L252.8,134.4L255.3,134.7L257.7,135.0L260.2,135.1L262.7,135.3L265.1,135.3L267.6,135.4L270.1,135.4L272.6,135.4L275.0,135.4L277.5,135.4L280.0,135.3L282.4,135.3L284.9,135.3L287.4,135.2L289.9,135.2L292.3,135.1L294.8,135.1L297.3,135.1L299.7,135.0L302.2,135.0L304.7,135.0L307.1,135.0L309.6,135.0L312.1,135.0L314.6,135.0L317.0,135.0L319.5,135.1L322.0,135.1L324.4,135.1L326.9,135.2L329.4,135.3L331.8,135.3L334.3,135.4L336.8,135.5L339.3,135.6L341.7,135.7L344.2,135.8L346.7,135.9L349.1,136.0L351.6,136.1L354.1,136.3L356.5,136.5L359.0,136.6L361.5,136.8L364.0,137.0L366.4,137.1L368.9,137.3L371.4,137.5L373.8,137.8L376.3,138.0L378.8,138.2L381.2,138.4L383.7,138.7L386.2,139.0L388.7,139.2L391.1,139.5L393.6,139.8L396.1,140.1L398.5,140.4L401.0,140.7L403.5,141.1L406.0,141.4L408.4,141.8L410.9,142.2L413.4,142.5L415.8,142.9L418.3,143.4L420.8,143.8L423.2,144.2L425.7,144.7L428.2,145.2L430.7,145.7L433.1,146.2L435.6,146.7L438.1,147.2L440.5,147.8L443.0,148.3L445.5,148.9L447.9,149.5L450.4,150.1L452.9,150.7L455.4,151.3L457.8,151.9L460.3,152.3L462.8,152.7L465.2,152.9L467.7,153.2L470.2,153.4L472.6,153.7L475.1,153.9L477.6,154.2L480.1,154.5L482.5,154.7L485.0,155.0L487.5,155.3L489.9,155.6L492.4,155.9L494.9,156.2L497.4,156.5L499.8,156.8L502.3,157.1L504.8,157.4L507.2,157.7L509.7,158.0L512.2,158.3L514.6,158.6L517.1,158.9L519.6,159.2L522.1,159.5L524.5,159.8L527.0,160.1L529.5,160.4L531.9,160.6L534.4,160.7L536.9,160.8L539.3,161.0L541.8,161.1L544.3,161.2L546.8,161.3L549.2,161.3L551.7,161.4L554.2,161.4L556.6,161.5L559.1,161.5L561.6,161.6L564.0,161.6L566.5,161.6L569.0,161.7L571.5,161.7L573.9,161.8L576.4,161.8L578.9,161.9L581.3,162.0L583.8,162.0L586.3,162.1L588.8,162.2L591.2,162.3L593.7,162.5L596.2,162.6L598.6,162.8L601.1,162.9L603.6,163.1L606.0,163.3L608.5,163.5L611.0,163.7L613.5,163.9L615.9,164.1L618.4,164.3L620.9,164.5L623.3,164.7L625.8,164.9L628.3,165.1L630.7,165.3L633.2,165.6L635.7,165.8L638.2,166.1L640.6,166.4L643.1,166.7L645.6,166.9L648.0,167.2L650.5,167.6L653.0,167.9L655.4,168.2L657.9,168.5L660.4,168.9L662.9,169.2L665.3,169.6L667.8,170.0L670.3,170.4L672.7,170.8L675.2,171.2L677.7,171.6L680.1,171.8L682.6,172.1L685.1,172.4L687.6,172.4L690.0,172.4L692.5,172.5L695.0,172.5L697.4,172.5L699.9,172.5L702.4,172.6L704.9,172.6L707.3,172.6L709.8,172.7L712.3,172.7L714.7,172.7L717.2,172.8L719.7,172.8L722.1,172.9L724.6,172.9L727.1,173.0L729.6,173.0L732.0,173.1L734.5,173.1L737.0,173.2L739.4,173.2L741.9,173.3L744.4,173.4L746.8,173.4L749.3,173.5L751.8,173.6L754.3,173.6L756.7,173.7L759.2,173.7L761.7,173.8L764.1,173.8L766.6,173.8L769.1,173.9L771.5,173.9L774.0,174.0L776.5,174.0L779.0,174.1L781.4,174.1L783.9,174.1L786.4,174.1L788.8,174.1L791.3,174.1L793.8,174.1L796.3,174.1L798.7,174.1L801.2,174.1L803.7,174.1L806.1,174.1L808.6,174.1L811.1,174.1L813.5,174.1L816.0,174.1L818.5,174.1L821.0,174.1L823.4,174.1L825.9,174.1L828.4,174.1L830.8,174.2L833.3,174.2L835.8,174.2L838.2,174.2L840.7,174.2L843.2,174.2L845.7,174.2L848.1,174.2L850.6,174.2L853.1,174.2L855.5,174.2L858.0,174.2L860.5,174.2L862.9,174.2L865.4,174.2L867.9,174.2L870.4,174.2L872.8,174.2L875.3,174.2L877.8,174.3L880.2,174.3L882.7,174.3L885.2,174.3L887.6,174.3L890.1,174.3L892.6,174.3L895.1,174.3L897.5,174.3L900.0,174.3" fill="none" stroke="#e6194b" stroke-width="1.4"/><text x="908" y="52" fill="#e6194b">COM</text><path d="M70.0,49.0L72.5,51.1L74.9,53.2L77.4,55.3L79.9,57.5L82.4,59.6L84.8,61.8L87.3,64.0L89.8,66.3L92.2,68.5L94.7,70.8L97.2,73.1L99.6,75.2L102.1,75.7L104.6,76.3L107.1,76.9L109.5,77.6L112.0,78.3L114.5,79.0L116.9,79.8L119.4,80.6L121.9,81.5L124.3,82.4L126.8,83.4L129.3,84.3L131.8,85.3L134.2,86.4L136.7,87.4L139.2,88.5L141.6,89.7L144.1,90.8L146.6,92.0L149.0,93.2L151.5,94.5L154.0,95.8L156.5,97.1L158.9,98.4L161.4,99.7L163.9,101.1L166.3,102.5L168.8,103.9L171.3,105.3L173.7,106.8L176.2,108.3L178.7,109.8L181.2,111.3L183.6,112.8L186.1,114.3L188.6,115.9L191.0,117.5L193.5,119.1L196.0,120.7L198.5,122.4L200.9,124.1L203.4,125.8L205.9,127.5L208.3,129.3L210.8,131.1L213.3,132.8L215.7,134.6L218.2,136.4L220.7,138.3L223.2,140.1L225.6,141.9L228.1,143.7L230.6,145.5L233.0,147.3L235.5,148.4L238.0,149.1L240.4,149.9L242.9,150.8L245.4,151.7L247.9,152.6L250.3,153.5L252.8,154.3L255.3,155.0L257.7,155.6L260.2,156.1L262.7,156.6L265.1,157.1L267.6,157.4L270.1,157.7L272.6,158.0L275.0,158.2L277.5,158.3L280.0,158.4L282.4,158.5L284.9,158.6L287.4,158.7L289.9,158.7L292.3,158.7L294.8,158.8L297.3,158.8L299.7,158.8L302.2,158.8L304.7,158.8L307.1,158.9L309.6,158.9L312.1,158.9L314.6,158.9L317.0,159.0L319.5,159.0L322.0,159.0L324.4,159.1L326.9,159.1L329.4,159.2L331.8,159.2L334.3,159.3L336.8,159.4L339.3,159.5L341.7,159.6L344.2,159.7L346.7,159.8L349.1,160.0L351.6,160.2L354.1,160.4L356.5,160.6L359.0,160.9L361.5,161.2L364.0,161.5L366.4,161.8L368.9,162.1L371.4,162.4L373.8,162.7L376.3,163.0L378.8,163.3L381.2,163.6L383.7,163.9L386.2,164.2L388.7,164.5L391.1,164.8L393.6,165.1L396.1,165.4L398.5,165.7L401.0,166.0L403.5,166.4L406.0,166.7L408.4,167.1L410.9,167.5L413.4,167.8L415.8,168.2L418.3,168.6L420.8,169.1L423.2,169.5L425.7,169.9L428.2,170.4L430.7,170.9L433.1,171.4L435.6,171.9L438.1,172.5L440.5,173.0L443.0,173.6L445.5,174.2L447.9,174.8L450.4,175.4L452.9,176.0L455.4,176.7L457.8,177.3L460.3,177.5L462.8,177.6L465.2,177.6L467.7,177.6L470.2,177.6L472.6,177.6L475.1,177.7L477.6,177.7L480.1,177.8L482.5,177.8L485.0,177.9L487.5,177.9L489.9,178.0L492.4,178.1L494.9,178.2L497.4,178.3L499.8,178.4L502.3,178.5L504.8,178.6L507.2,178.8L509.7,178.9L512.2,179.0L514.6,179.1L517.1,179.2L519.6,179.4L522.1,179.5L524.5,179.6L527.0,179.8L529.5,179.9L531.9,179.9L534.4,179.9L536.9,179.9L539.3,179.9L541.8,179.9L544.3,179.9L546.8,179.9L549.2,179.9L551.7,179.9L554.2,179.9L556.6,179.9L559.1,179.9L561.6,179.9L564.0,180.0L566.5,180.0L569.0,180.0L571.5,180.0L573.9,180.0L576.4,180.0L578.9,180.0L581.3,180.0L583.8,180.0L586.3,180.0L588.8,180.0L591.2,180.0L593.7,180.0L596.2,180.0L598.6,180.0L601.1,180.0L603.6,180.0L606.0,180.0L608.5,180.0L611.0,180.0L613.5,180.0L615.9,180.0L618.4,180.0L620.9,180.0L623.3,180.0L625.8,180.0L628.3,180.0L630.7,180.0L633.2,180.0L635.7,180.0L638.2,180.0L640.6,180.0L643.1,180.0L645.6,180.0L648.0,180.0L650.5,180.0L653.0,180.0L655.4,180.0L657.9,180.0L660.4,180.0L662.9,180.0L665.3,180.0L667.8,180.0L670.3,180.0L672.7,180.0L675.2,180.0L677.7,180.0L680.1,180.0L682.6,180.0L685.1,180.0L687.6,180.0L690.0,180.0L692.5,180.0L695.0,180.0L697.4,180.0L699.9,180.0L702.4,180.0L704.9,180.0L707.3,180.0L709.8,180.0L712.3,180.0L714.7,180.0L717.2,180.0L719.7,180.0L722.1,180.0L724.6,180.0L727.1,180.0L729.6,180.0L732.0,180.0L734.5,180.0L737.0,180.0L739.4,180.0L741.9,180.0L744.4,180.0L746.8,180.0L749.3,180.0L751.8,180.0L754.3,180.0L756.7,180.0L759.2,180.0L761.7,180.0L764.1,180.0L766.6,180.0L769.1,180.0L771.5,180.0L774.0,180.0L776.5,180.0L779.0,180.0L781.4,180.0L783.9,180.0L786.4,180.0L788.8,180.0L791.3,180.0L793.8,180.0L796.3,180.0L798.7,180.0L801.2,180.0L803.7,180.0L806.1,180.0L808.6,180.0L811.1,180.0L813.5,180.0L816.0,180.0L818.5,180.0L821.0,180.0L823.4,180.0L825.9,180.0L828.4,180.0L830.8,180.0L833.3,180.0L835.8,180.0L838.2,180.0L840.7,180.0L843.2,180.0L845.7,180.0L848.1,180.0L850.6,180.0L853.1,180.0L855.5,180.0L858.0,180.0L860.5,180.0L862.9,180.0L865.4,180.0L867.9,180.0L870.4,180.0L872.8,180.0L875.3,180.0L877.8,180.0L880.2,180.0L882.7,180.0L885.2,180.0L887.6,180.0L890.1,180.0L892.6,180.0L895.1,180.0L897.5,180.0L900.0,180.0" fill="none" stroke="#3cb44b" stroke-width="1.4"/><text x="908" y="64" fill="#3cb44b">pelvis</text><path d="M70.0,102.8L72.5,104.9L74.9,107.0L77.4,109.1L79.9,111.2L82.4,113.4L84.8,115.6L87.3,117.8L89.8,120.1L92.2,122.3L94.7,124.6L97.2,126.9L99.6,128.9L102.1,129.2L104.6,129.3L107.1,129.4L109.5,129.4L112.0,129.3L114.5,129.1L116.9,128.9L119.4,128.7L121.9,128.5L124.3,128.2L126.8,127.9L129.3,127.6L131.8,127.2L134.2,126.9L136.7,126.5L139.2,126.2L141.6,125.8L144.1,125.5L146.6,125.1L149.0,124.7L151.5,124.4L154.0,124.0L156.5,123.6L158.9,123.2L161.4,122.9L163.9,122.5L166.3,122.2L168.8,121.8L171.3,121.5L173.7,121.1L176.2,120.8L178.7,120.5L181.2,120.1L183.6,119.8L186.1,119.5L188.6,119.2L191.0,119.0L193.5,118.7L196.0,118.4L198.5,118.2L200.9,117.9L203.4,117.7L205.9,117.5L208.3,117.3L210.8,117.1L213.3,116.9L215.7,116.7L218.2,116.5L220.7,116.4L223.2,116.2L225.6,116.1L228.1,115.9L230.6,115.8L233.0,115.7L235.5,115.5L238.0,114.6L240.4,113.9L242.9,113.3L245.4,112.8L247.9,112.4L250.3,112.2L252.8,112.1L255.3,112.2L257.7,112.2L260.2,112.4L262.7,112.7L265.1,112.9L267.6,113.3L270.1,113.6L272.6,113.9L275.0,114.2L277.5,114.4L280.0,114.6L282.4,114.7L284.9,114.8L287.4,114.8L289.9,114.9L292.3,114.9L294.8,115.0L297.3,115.0L299.7,115.0L302.2,115.0L304.7,115.0L307.1,115.0L309.6,115.0L312.1,115.0L314.6,115.0L317.0,115.1L319.5,115.1L322.0,115.1L324.4,115.2L326.9,115.2L329.4,115.2L331.8,115.3L334.3,115.3L336.8,115.3L339.3,115.4L341.7,115.4L344.2,115.5L346.7,115.5L349.1,115.5L351.6,115.6L354.1,115.6L356.5,115.7L359.0,115.8L361.5,115.9L364.0,116.0L366.4,116.1L368.9,116.3L371.4,116.5L373.8,116.8L376.3,117.0L378.8,117.3L381.2,117.5L383.7,117.7L386.2,118.0L388.7,118.2L391.1,118.4L393.6,118.6L396.1,118.9L398.5,119.1L401.0,119.4L403.5,119.7L406.0,120.0L408.4,120.3L410.9,120.6L413.4,120.9L415.8,121.3L418.3,121.7L420.8,122.1L423.2,122.5L425.7,122.9L428.2,123.3L430.7,123.8L433.1,124.3L435.6,124.8L438.1,125.3L440.5,125.9L443.0,126.4L445.5,127.0L447.9,127.6L450.4,128.2L452.9,128.8L455.4,129.4L457.8,130.0L460.3,130.3L462.8,130.4L465.2,130.4L467.7,130.4L470.2,130.4L472.6,130.4L475.1,130.3L477.6,130.3L480.1,130.3L482.5,130.3L485.0,130.3L487.5,130.3L489.9,130.3L492.4,130.4L494.9,130.4L497.4,130.5L499.8,130.6L502.3,130.7L504.8,130.8L507.2,130.9L509.7,131.0L512.2,131.1L514.6,131.3L517.1,131.4L519.6,131.5L522.1,131.6L524.5,131.8L527.0,131.9L529.5,132.1L531.9,132.0L534.4,132.0L536.9,132.0L539.3,132.0L541.8,132.0L544.3,132.0L546.8,132.0L549.2,132.0L551.7,132.1L554.2,132.1L556.6,132.2L559.1,132.2L561.6,132.3L564.0,132.3L566.5,132.4L569.0,132.5L571.5,132.6L573.9,132.6L576.4,132.6L578.9,132.6L581.3,132.6L583.8,132.6L586.3,132.7L588.8,132.7L591.2,132.7L593.7,132.7L596.2,132.7L598.6,132.7L601.1,132.7L603.6,132.8L606.0,132.8L608.5,132.8L611.0,132.8L613.5,132.8L615.9,132.9L618.4,132.9L620.9,132.9L623.3,133.0L625.8,133.0L628.3,133.0L630.7,133.1L633.2,133.1L635.7,133.1L638.2,133.1L640.6,133.2L643.1,133.2L645.6,133.2L648.0,133.3L650.5,133.3L653.0,133.3L655.4,133.4L657.9,133.4L660.4,133.4L662.9,133.5L665.3,133.5L667.8,133.6L670.3,133.6L672.7,133.6L675.2,133.7L677.7,133.7L680.1,133.8L682.6,133.9L685.1,133.9L687.6,134.0L690.0,134.0L692.5,134.1L695.0,134.1L697.4,134.2L699.9,134.3L702.4,134.3L704.9,134.4L707.3,134.4L709.8,134.5L712.3,134.5L714.7,134.6L717.2,134.6L719.7,134.7L722.1,134.7L724.6,134.8L727.1,134.8L729.6,134.9L732.0,134.9L734.5,134.9L737.0,135.0L739.4,135.0L741.9,135.1L744.4,135.1L746.8,135.1L749.3,135.2L751.8,135.2L754.3,135.2L756.7,135.3L759.2,135.3L761.7,135.3L764.1,135.3L766.6,135.4L769.1,135.4L771.5,135.4L774.0,135.5L776.5,135.5L779.0,135.5L781.4,135.6L783.9,135.6L786.4,135.6L788.8,135.6L791.3,135.7L793.8,135.7L796.3,135.7L798.7,135.8L801.2,135.8L803.7,135.8L806.1,135.9L808.6,135.9L811.1,136.0L813.5,136.0L816.0,136.0L818.5,136.1L821.0,136.1L823.4,136.2L825.9,136.2L828.4,136.2L830.8,136.3L833.3,136.3L835.8,136.4L838.2,136.4L840.7,136.5L843.2,136.6L845.7,136.6L848.1,136.7L850.6,136.7L853.1,136.8L855.5,136.9L858.0,136.9L860.5,137.0L862.9,137.1L865.4,137.1L867.9,137.2L870.4,137.3L872.8,137.4L875.3,137.4L877.8,137.5L880.2,137.6L882.7,137.7L885.2,137.8L887.6,137.9L890.1,138.0L892.6,138.1L895.1,138.2L897.5,138.3L900.0,138.4" fill="none" stroke="#4363d8" stroke-width="1.4"/><text x="908" y="76" fill="#4363d8">knee_R</text><rect x="70" y="210" width="830" height="100" fill="none" stroke="#999"/><text x="74" y="206" font-weight="bold">COM vertical velocity (m/s)</text><line x1="102.11309523809521" x2="102.11309523809521" y1="210" y2="310" stroke="#bbb"/><text x="104.11309523809521" y="307" fill="#888" font-size="9">impact</text><line x1="235.50595238095238" x2="235.50595238095238" y1="210" y2="310" stroke="#bbb"/><text x="237.50595238095238" y="297" fill="#888" font-size="9">free rise ends</text><line x1="242.91666666666666" x2="242.91666666666666" y1="210" y2="310" stroke="#bbb"/><text x="244.91666666666666" y="287" fill="#888" font-size="9">peak</text><line x1="457.827380952381" x2="457.827380952381" y1="210" y2="310" stroke="#bbb"/><text x="459.827380952381" y="307" fill="#888" font-size="9">heel down</text><line x1="70" x2="70" y1="310" y2="314" stroke="#999"/><text x="70" y="324" text-anchor="middle" font-size="9" fill="#666">0.40</text><line x1="129.28571428571428" x2="129.28571428571428" y1="310" y2="314" stroke="#999"/><text x="129.28571428571428" y="324" text-anchor="middle" font-size="9" fill="#666">0.50</text><line x1="188.57142857142856" x2="188.57142857142856" y1="310" y2="314" stroke="#999"/><text x="188.57142857142856" y="324" text-anchor="middle" font-size="9" fill="#666">0.60</text><line x1="247.85714285714283" x2="247.85714285714283" y1="310" y2="314" stroke="#999"/><text x="247.85714285714283" y="324" text-anchor="middle" font-size="9" fill="#666">0.70</text><line x1="307.1428571428571" x2="307.1428571428571" y1="310" y2="314" stroke="#999"/><text x="307.1428571428571" y="324" text-anchor="middle" font-size="9" fill="#666">0.80</text><line x1="366.4285714285714" x2="366.4285714285714" y1="310" y2="314" stroke="#999"/><text x="366.4285714285714" y="324" text-anchor="middle" font-size="9" fill="#666">0.90</text><line x1="425.71428571428567" x2="425.71428571428567" y1="310" y2="314" stroke="#999"/><text x="425.71428571428567" y="324" text-anchor="middle" font-size="9" fill="#666">1.00</text><line x1="484.99999999999994" x2="484.99999999999994" y1="310" y2="314" stroke="#999"/><text x="484.99999999999994" y="324" text-anchor="middle" font-size="9" fill="#666">1.10</text><line x1="544.2857142857142" x2="544.2857142857142" y1="310" y2="314" stroke="#999"/><text x="544.2857142857142" y="324" text-anchor="middle" font-size="9" fill="#666">1.20</text><line x1="603.5714285714286" x2="603.5714285714286" y1="310" y2="314" stroke="#999"/><text x="603.5714285714286" y="324" text-anchor="middle" font-size="9" fill="#666">1.30</text><line x1="662.8571428571429" x2="662.8571428571429" y1="310" y2="314" stroke="#999"/><text x="662.8571428571429" y="324" text-anchor="middle" font-size="9" fill="#666">1.40</text><line x1="722.1428571428572" x2="722.1428571428572" y1="310" y2="314" stroke="#999"/><text x="722.1428571428572" y="324" text-anchor="middle" font-size="9" fill="#666">1.50</text><line x1="781.4285714285716" x2="781.4285714285716" y1="310" y2="314" stroke="#999"/><text x="781.4285714285716" y="324" text-anchor="middle" font-size="9" fill="#666">1.60</text><line x1="840.7142857142859" x2="840.7142857142859" y1="310" y2="314" stroke="#999"/><text x="840.7142857142859" y="324" text-anchor="middle" font-size="9" fill="#666">1.70</text><line x1="900.0000000000002" x2="900.0000000000002" y1="310" y2="314" stroke="#999"/><text x="900.0000000000002" y="324" text-anchor="middle" font-size="9" fill="#666">1.80</text><text x="64" y="220" text-anchor="end">0.0747</text><text x="64" y="310" text-anchor="end">-4.37</text><line x1="70" x2="900" y1="211.67927109670484" y2="211.67927109670484" stroke="#ccc" stroke-dasharray="3,3"/><path d="M70.0,299.9L72.5,300.8L74.9,301.7L77.4,302.6L79.9,303.6L82.4,304.5L84.8,305.4L87.3,306.3L89.8,307.2L92.2,308.2L94.7,309.1L97.2,310.0L99.6,301.1L102.1,238.7L104.6,239.6L107.1,240.5L109.5,241.4L112.0,242.3L114.5,243.1L116.9,243.9L119.4,244.7L121.9,245.6L124.3,246.4L126.8,247.3L129.3,248.2L131.8,249.1L134.2,250.0L136.7,250.9L139.2,251.8L141.6,252.7L144.1,253.6L146.6,254.5L149.0,255.4L151.5,256.3L154.0,257.2L156.5,258.1L158.9,259.1L161.4,260.0L163.9,260.9L166.3,261.8L168.8,262.6L171.3,263.5L173.7,264.3L176.2,265.2L178.7,266.1L181.2,266.9L183.6,267.8L186.1,268.7L188.6,269.5L191.0,270.3L193.5,271.2L196.0,272.0L198.5,272.8L200.9,273.6L203.4,274.4L205.9,275.2L208.3,275.9L210.8,276.7L213.3,277.4L215.7,278.1L218.2,278.7L220.7,279.3L223.2,279.9L225.6,280.4L228.1,280.8L230.6,281.1L233.0,281.3L235.5,270.0L238.0,260.0L240.4,235.3L242.9,230.8L245.4,230.4L247.9,229.8L250.3,229.0L252.8,227.3L255.3,224.9L257.7,221.7L260.2,218.9L262.7,216.5L265.1,214.8L267.6,213.6L270.1,212.3L272.6,211.8L275.0,211.4L277.5,210.8L280.0,210.3L282.4,210.2L284.9,210.0L287.4,210.0L289.9,210.0L292.3,210.1L294.8,210.2L297.3,210.4L299.7,210.6L302.2,210.8L304.7,211.0L307.1,211.3L309.6,211.6L312.1,211.9L314.6,212.2L317.0,212.6L319.5,212.9L322.0,213.2L324.4,213.5L326.9,213.8L329.4,214.2L331.8,214.5L334.3,214.8L336.8,215.2L339.3,215.5L341.7,215.9L344.2,216.3L346.7,216.6L349.1,217.1L351.6,217.5L354.1,217.9L356.5,218.4L359.0,218.6L361.5,218.8L364.0,219.3L366.4,219.8L368.9,220.2L371.4,220.3L373.8,220.8L376.3,221.2L378.8,221.5L381.2,221.7L383.7,222.2L386.2,222.6L388.7,223.1L391.1,223.6L393.6,224.1L396.1,224.6L398.5,225.1L401.0,225.6L403.5,226.1L406.0,226.7L408.4,227.2L410.9,227.7L413.4,228.3L415.8,228.9L418.3,229.4L420.8,230.0L423.2,230.6L425.7,231.3L428.2,231.9L430.7,232.5L433.1,233.2L435.6,233.8L438.1,234.5L440.5,235.0L443.0,235.7L445.5,236.2L447.9,236.7L450.4,237.1L452.9,237.5L455.4,238.2L457.8,238.7L460.3,229.4L462.8,225.2L465.2,223.2L467.7,222.4L470.2,222.3L472.6,222.6L475.1,222.9L477.6,223.1L480.1,223.0L482.5,223.2L485.0,223.3L487.5,223.6L489.9,223.9L492.4,224.2L494.9,224.5L497.4,224.7L499.8,224.8L502.3,224.8L504.8,224.6L507.2,224.4L509.7,224.2L512.2,224.1L514.6,224.1L517.1,224.3L519.6,224.6L522.1,224.7L524.5,225.0L527.0,225.4L529.5,225.8L531.9,218.0L534.4,217.3L536.9,217.1L539.3,216.8L541.8,216.4L544.3,216.0L546.8,215.4L549.2,214.9L551.7,214.2L554.2,213.7L556.6,213.3L559.1,213.2L561.6,213.2L564.0,213.2L566.5,213.4L569.0,213.6L571.5,213.7L573.9,213.6L576.4,214.0L578.9,214.3L581.3,214.7L583.8,215.1L586.3,215.6L588.8,216.1L591.2,216.6L593.7,217.0L596.2,217.5L598.6,218.0L601.1,218.5L603.6,218.9L606.0,219.4L608.5,219.9L611.0,220.3L613.5,220.8L615.9,219.8L618.4,220.3L620.9,220.7L623.3,220.6L625.8,220.8L628.3,221.1L630.7,221.6L633.2,222.1L635.7,222.4L638.2,222.8L640.6,223.2L643.1,223.7L645.6,224.1L648.0,224.5L650.5,224.9L653.0,225.3L655.4,225.7L657.9,226.1L660.4,226.6L662.9,227.0L665.3,227.4L667.8,227.8L670.3,228.2L672.7,228.6L675.2,228.8L677.7,228.3L680.1,223.9L682.6,223.8L685.1,223.5L687.6,212.5L690.0,212.5L692.5,212.5L695.0,212.6L697.4,212.7L699.9,212.8L702.4,212.9L704.9,213.0L707.3,213.0L709.8,213.1L712.3,213.2L714.7,213.3L717.2,213.4L719.7,213.5L722.1,213.6L724.6,213.7L727.1,213.8L729.6,213.9L732.0,214.0L734.5,214.1L737.0,214.2L739.4,214.3L741.9,214.4L744.4,214.5L746.8,214.7L749.3,214.8L751.8,214.5L754.3,214.1L756.7,214.2L759.2,213.3L761.7,213.2L764.1,213.3L766.6,213.4L769.1,213.5L771.5,213.6L774.0,213.7L776.5,213.6L779.0,213.4L781.4,213.3L783.9,211.6L786.4,211.7L788.8,211.8L791.3,211.8L793.8,211.9L796.3,211.8L798.7,211.8L801.2,211.8L803.7,211.8L806.1,211.8L808.6,211.8L811.1,211.8L813.5,211.8L816.0,211.8L818.5,211.8L821.0,211.8L823.4,211.8L825.9,211.8L828.4,211.8L830.8,211.8L833.3,211.8L835.8,211.9L838.2,211.9L840.7,211.9L843.2,211.9L845.7,211.9L848.1,211.9L850.6,211.9L853.1,211.9L855.5,211.9L858.0,211.9L860.5,211.9L862.9,211.9L865.4,211.9L867.9,211.9L870.4,212.0L872.8,212.0L875.3,212.0L877.8,212.0L880.2,212.0L882.7,212.0L885.2,212.0L887.6,212.0L890.1,212.0L892.6,212.1L895.1,212.1L897.5,212.1L900.0,212.1" fill="none" stroke="#e6194b" stroke-width="1.4"/><text x="908" y="222" fill="#e6194b">v_COM,y</text><rect x="70" y="340" width="830" height="140" fill="none" stroke="#999"/><text x="74" y="336" font-weight="bold">turf force on the whole body from its momentum change (% body weight, clipped 0…200); feet sum (incl. self-contact)</text><line x1="102.11309523809521" x2="102.11309523809521" y1="340" y2="480" stroke="#bbb"/><text x="104.11309523809521" y="477" fill="#888" font-size="9">impact</text><line x1="235.50595238095238" x2="235.50595238095238" y1="340" y2="480" stroke="#bbb"/><text x="237.50595238095238" y="467" fill="#888" font-size="9">free rise ends</text><line x1="242.91666666666666" x2="242.91666666666666" y1="340" y2="480" stroke="#bbb"/><text x="244.91666666666666" y="457" fill="#888" font-size="9">peak</text><line x1="457.827380952381" x2="457.827380952381" y1="340" y2="480" stroke="#bbb"/><text x="459.827380952381" y="477" fill="#888" font-size="9">heel down</text><line x1="70" x2="70" y1="480" y2="484" stroke="#999"/><text x="70" y="494" text-anchor="middle" font-size="9" fill="#666">0.40</text><line x1="129.28571428571428" x2="129.28571428571428" y1="480" y2="484" stroke="#999"/><text x="129.28571428571428" y="494" text-anchor="middle" font-size="9" fill="#666">0.50</text><line x1="188.57142857142856" x2="188.57142857142856" y1="480" y2="484" stroke="#999"/><text x="188.57142857142856" y="494" text-anchor="middle" font-size="9" fill="#666">0.60</text><line x1="247.85714285714283" x2="247.85714285714283" y1="480" y2="484" stroke="#999"/><text x="247.85714285714283" y="494" text-anchor="middle" font-size="9" fill="#666">0.70</text><line x1="307.1428571428571" x2="307.1428571428571" y1="480" y2="484" stroke="#999"/><text x="307.1428571428571" y="494" text-anchor="middle" font-size="9" fill="#666">0.80</text><line x1="366.4285714285714" x2="366.4285714285714" y1="480" y2="484" stroke="#999"/><text x="366.4285714285714" y="494" text-anchor="middle" font-size="9" fill="#666">0.90</text><line x1="425.71428571428567" x2="425.71428571428567" y1="480" y2="484" stroke="#999"/><text x="425.71428571428567" y="494" text-anchor="middle" font-size="9" fill="#666">1.00</text><line x1="484.99999999999994" x2="484.99999999999994" y1="480" y2="484" stroke="#999"/><text x="484.99999999999994" y="494" text-anchor="middle" font-size="9" fill="#666">1.10</text><line x1="544.2857142857142" x2="544.2857142857142" y1="480" y2="484" stroke="#999"/><text x="544.2857142857142" y="494" text-anchor="middle" font-size="9" fill="#666">1.20</text><line x1="603.5714285714286" x2="603.5714285714286" y1="480" y2="484" stroke="#999"/><text x="603.5714285714286" y="494" text-anchor="middle" font-size="9" fill="#666">1.30</text><line x1="662.8571428571429" x2="662.8571428571429" y1="480" y2="484" stroke="#999"/><text x="662.8571428571429" y="494" text-anchor="middle" font-size="9" fill="#666">1.40</text><line x1="722.1428571428572" x2="722.1428571428572" y1="480" y2="484" stroke="#999"/><text x="722.1428571428572" y="494" text-anchor="middle" font-size="9" fill="#666">1.50</text><line x1="781.4285714285716" x2="781.4285714285716" y1="480" y2="484" stroke="#999"/><text x="781.4285714285716" y="494" text-anchor="middle" font-size="9" fill="#666">1.60</text><line x1="840.7142857142859" x2="840.7142857142859" y1="480" y2="484" stroke="#999"/><text x="840.7142857142859" y="494" text-anchor="middle" font-size="9" fill="#666">1.70</text><line x1="900.0000000000002" x2="900.0000000000002" y1="480" y2="484" stroke="#999"/><text x="900.0000000000002" y="494" text-anchor="middle" font-size="9" fill="#666">1.80</text><text x="64" y="350" text-anchor="end">200</text><text x="64" y="480" text-anchor="end">0.0000033</text><path d="M70.0,480.0L72.5,480.0L74.9,480.0L77.4,480.0L79.9,480.0L82.4,480.0L84.8,480.0L87.3,480.0L89.8,480.0L92.2,480.0L94.7,480.0L97.2,480.0L99.6,340.0L102.1,340.0L104.6,478.8L107.1,477.3L109.5,476.5L112.0,477.0L114.5,476.6L116.9,465.0L119.4,472.8L121.9,476.0L124.3,477.1L126.8,477.5L129.3,477.8L131.8,478.1L134.2,478.3L136.7,478.5L139.2,478.7L141.6,478.8L144.1,478.8L146.6,478.7L149.0,478.9L151.5,479.3L154.0,479.3L156.5,479.2L158.9,479.2L161.4,479.1L163.9,479.0L166.3,478.9L168.8,470.9L171.3,477.4L173.7,477.1L176.2,476.8L178.7,476.4L181.2,476.0L183.6,475.5L186.1,475.0L188.6,474.6L191.0,473.7L193.5,473.2L196.0,472.8L198.5,472.0L200.9,471.1L203.4,470.0L205.9,468.9L208.3,467.5L210.8,466.0L213.3,464.4L215.7,462.6L218.2,460.4L220.7,456.9L223.2,452.0L225.6,446.4L228.1,440.1L230.6,432.9L233.0,424.5L235.5,340.0L238.0,340.0L240.4,340.0L242.9,340.0L245.4,383.3L247.9,361.4L250.3,348.5L252.8,340.0L255.3,340.0L257.7,340.0L260.2,340.0L262.7,340.0L265.1,340.0L267.6,340.0L270.1,340.0L272.6,373.3L275.0,374.0L277.5,368.4L280.0,373.9L282.4,399.5L284.9,397.3L287.4,407.8L289.9,411.9L292.3,415.7L294.8,419.1L297.3,421.6L299.7,423.9L302.2,425.8L304.7,428.0L307.1,430.8L309.6,432.6L312.1,434.0L314.6,436.1L317.0,435.2L319.5,435.2L322.0,434.8L324.4,433.6L326.9,434.3L329.4,434.2L331.8,434.5L334.3,435.5L336.8,436.0L339.3,436.8L341.7,437.8L344.2,438.7L346.7,439.9L349.1,441.7L351.6,442.6L354.1,443.8L356.5,444.2L359.0,426.7L361.5,426.0L364.0,446.4L366.4,445.7L368.9,440.9L371.4,420.4L373.8,448.3L376.3,442.7L378.8,434.3L381.2,423.5L383.7,444.1L386.2,445.0L388.7,445.6L391.1,447.0L393.6,447.6L396.1,449.1L398.5,448.8L401.0,448.9L403.5,450.2L406.0,450.7L408.4,450.7L410.9,451.1L413.4,452.1L415.8,452.7L418.3,454.5L420.8,455.1L423.2,455.4L425.7,457.3L428.2,457.6L430.7,457.8L433.1,459.5L435.6,460.6L438.1,460.4L440.5,450.8L443.0,459.5L445.5,451.1L447.9,447.0L450.4,443.4L452.9,440.5L455.4,460.6L457.8,445.8L460.3,340.0L462.8,340.0L465.2,340.0L467.7,342.4L470.2,404.1L472.6,434.0L475.1,434.5L477.6,426.0L480.1,401.8L482.5,420.7L485.0,423.2L487.5,428.0L489.9,433.5L492.4,434.3L494.9,432.8L497.4,428.3L499.8,417.2L502.3,406.7L504.8,398.1L507.2,394.3L509.7,395.6L512.2,401.9L514.6,410.2L517.1,422.0L519.6,432.1L522.1,417.9L524.5,435.8L527.0,437.2L529.5,438.4L531.9,340.0L534.4,356.9L536.9,393.4L539.3,386.2L541.8,380.4L544.3,375.3L546.8,369.9L549.2,365.9L551.7,361.3L554.2,370.3L556.6,376.4L559.1,402.6L561.6,410.9L564.0,415.7L566.5,420.4L569.0,425.2L571.5,420.3L573.9,403.7L576.4,434.9L578.9,434.8L581.3,441.4L583.8,444.0L586.3,446.2L588.8,446.5L591.2,445.4L593.7,446.0L596.2,446.3L598.6,446.2L601.1,446.1L603.6,446.1L606.0,445.9L608.5,445.9L611.0,445.6L613.5,445.7L615.9,340.0L618.4,447.6L620.9,436.6L623.3,406.1L625.8,422.4L628.3,436.1L630.7,447.6L633.2,443.9L635.7,437.0L638.2,441.8L640.6,440.7L643.1,442.1L645.6,442.0L648.0,441.9L650.5,441.8L653.0,441.6L655.4,441.5L657.9,441.3L660.4,441.2L662.9,441.0L665.3,440.9L667.8,440.7L670.3,440.6L672.7,440.4L675.2,424.6L677.7,371.1L680.1,340.0L682.6,402.6L685.1,390.0L687.6,340.0L690.0,406.6L692.5,416.7L695.0,416.6L697.4,416.2L699.9,416.4L702.4,416.3L704.9,416.5L707.3,416.3L709.8,416.3L712.3,416.9L714.7,416.7L717.2,416.9L719.7,417.3L722.1,417.4L724.6,417.7L727.1,417.8L729.6,418.0L732.0,418.2L734.5,418.3L737.0,418.3L739.4,418.5L741.9,418.1L744.4,418.3L746.8,418.1L749.3,417.5L751.8,388.7L754.3,378.2L756.7,417.7L759.2,343.9L761.7,400.7L764.1,418.7L766.6,419.2L769.1,418.9L771.5,417.9L774.0,417.5L776.5,397.8L779.0,398.3L781.4,401.6L783.9,340.0L786.4,418.2L788.8,412.8L791.3,414.1L793.8,413.9L796.3,406.2L798.7,406.8L801.2,410.3L803.7,410.2L806.1,410.3L808.6,410.3L811.1,410.3L813.5,410.3L816.0,410.3L818.5,410.4L821.0,410.3L823.4,410.4L825.9,410.4L828.4,410.4L830.8,410.4L833.3,410.4L835.8,410.4L838.2,410.5L840.7,410.5L843.2,410.5L845.7,410.5L848.1,410.5L850.6,410.5L853.1,410.6L855.5,410.6L858.0,410.6L860.5,410.6L862.9,410.6L865.4,410.7L867.9,410.7L870.4,410.7L872.8,410.7L875.3,410.8L877.8,410.8L880.2,410.8L882.7,410.9L885.2,410.9L887.6,410.9L890.1,410.9L892.6,411.0L895.1,411.0L897.5,411.0L900.0,411.1" fill="none" stroke="#e6194b" stroke-width="1.4"/><text x="908" y="352" fill="#e6194b">total turf force</text><path d="M70.0,480.0L72.5,480.0L74.9,480.0L77.4,480.0L79.9,480.0L82.4,480.0L84.8,480.0L87.3,480.0L89.8,480.0L92.2,480.0L94.7,480.0L97.2,480.0L99.6,340.0L102.1,340.0L104.6,478.8L107.1,477.3L109.5,476.5L112.0,477.0L114.5,476.6L116.9,465.0L119.4,472.8L121.9,476.0L124.3,477.1L126.8,477.5L129.3,477.8L131.8,478.1L134.2,478.3L136.7,478.5L139.2,478.7L141.6,478.8L144.1,478.8L146.6,478.7L149.0,478.9L151.5,479.3L154.0,479.3L156.5,479.2L158.9,479.2L161.4,479.1L163.9,479.0L166.3,478.9L168.8,470.9L171.3,477.4L173.7,477.1L176.2,476.8L178.7,476.4L181.2,476.0L183.6,475.5L186.1,475.0L188.6,474.6L191.0,473.7L193.5,473.2L196.0,472.8L198.5,472.0L200.9,471.1L203.4,470.0L205.9,468.9L208.3,467.5L210.8,466.0L213.3,464.4L215.7,462.6L218.2,460.4L220.7,456.9L223.2,452.0L225.6,446.4L228.1,440.1L230.6,432.9L233.0,424.5L235.5,340.0L238.0,340.0L240.4,459.4L242.9,475.8L245.4,469.0L247.9,466.7L250.3,467.2L252.8,460.0L255.3,467.1L257.7,436.7L260.2,451.7L262.7,443.6L265.1,450.3L267.6,444.1L270.1,410.8L272.6,405.0L275.0,412.6L277.5,397.4L280.0,394.9L282.4,421.6L284.9,426.9L287.4,428.9L289.9,430.3L292.3,432.6L294.8,434.8L297.3,436.8L299.7,438.7L302.2,440.3L304.7,442.3L307.1,444.8L309.6,446.3L312.1,447.3L314.6,449.2L317.0,448.1L319.5,447.8L322.0,447.1L324.4,445.7L326.9,446.0L329.4,445.6L331.8,445.6L334.3,446.1L336.8,446.2L339.3,446.5L341.7,447.1L344.2,447.5L346.7,448.3L349.1,449.7L351.6,450.3L354.1,451.1L356.5,451.9L359.0,446.2L361.5,435.8L364.0,451.8L366.4,451.4L368.9,445.6L371.4,423.6L373.8,452.4L376.3,448.3L378.8,442.1L381.2,430.3L383.7,449.6L386.2,450.4L388.7,450.8L391.1,452.1L393.6,452.5L396.1,454.1L398.5,453.7L401.0,453.6L403.5,454.7L406.0,454.9L408.4,454.9L410.9,455.2L413.4,456.1L415.8,456.5L418.3,458.2L420.8,458.8L423.2,458.9L425.7,460.7L428.2,460.9L430.7,461.1L433.1,462.6L435.6,463.5L438.1,464.5L440.5,453.6L443.0,462.1L445.5,453.7L447.9,449.6L450.4,445.9L452.9,442.9L455.4,462.9L457.8,464.3L460.3,340.0L462.8,340.0L465.2,443.7L467.7,371.0L470.2,436.9L472.6,459.9L475.1,461.1L477.6,474.2L480.1,473.6L482.5,471.5L485.0,469.8L487.5,468.8L489.9,475.4L492.4,475.7L494.9,475.2L497.4,475.5L499.8,475.6L502.3,477.1L504.8,477.7L507.2,478.2L509.7,478.4L512.2,478.2L514.6,476.2L517.1,478.0L519.6,474.4L522.1,455.5L524.5,472.7L527.0,473.0L529.5,473.1L531.9,479.9L534.4,480.0L536.9,480.0L539.3,479.9L541.8,479.3L544.3,478.7L546.8,478.9L549.2,478.8L551.7,478.6L554.2,478.1L556.6,477.7L559.1,478.2L561.6,478.6L564.0,478.5L566.5,478.4L569.0,478.3L571.5,466.5L573.9,429.4L576.4,472.9L578.9,467.0L581.3,472.3L583.8,472.2L586.3,472.0L588.8,471.9L591.2,466.0L593.7,469.1L596.2,470.9L598.6,470.8L601.1,470.7L603.6,470.6L606.0,470.5L608.5,470.4L611.0,470.2L613.5,470.3L615.9,464.0L618.4,469.0L620.9,462.7L623.3,416.6L625.8,447.4L628.3,462.0L630.7,461.0L633.2,463.0L635.7,466.1L638.2,465.7L640.6,465.3L643.1,465.2L645.6,465.3L648.0,465.4L650.5,465.4L653.0,465.5L655.4,465.5L657.9,465.6L660.4,465.6L662.9,465.6L665.3,465.5L667.8,465.5L670.3,465.4L672.7,465.3L675.2,465.2L677.7,458.1L680.1,441.9L682.6,461.5L685.1,464.1L687.6,478.0L690.0,475.3L692.5,471.1L695.0,470.5L697.4,470.5L699.9,470.5L702.4,470.5L704.9,470.5L707.3,470.5L709.8,470.5L712.3,470.5L714.7,470.5L717.2,470.5L719.7,470.5L722.1,470.5L724.6,470.5L727.1,470.5L729.6,470.5L732.0,470.4L734.5,470.4L737.0,470.4L739.4,470.4L741.9,470.4L744.4,470.4L746.8,470.3L749.3,470.2L751.8,471.8L754.3,472.0L756.7,469.2L759.2,467.6L761.7,468.7L764.1,468.8L766.6,468.9L769.1,468.7L771.5,468.5L774.0,468.5L776.5,468.4L779.0,468.3L781.4,467.5L783.9,469.6L786.4,469.7L788.8,469.0L791.3,467.9L793.8,467.9L796.3,468.0L798.7,467.9L801.2,467.9L803.7,468.0L806.1,468.0L808.6,468.0L811.1,468.0L813.5,468.0L816.0,468.0L818.5,468.0L821.0,468.0L823.4,468.0L825.9,468.0L828.4,468.0L830.8,468.0L833.3,468.0L835.8,468.0L838.2,468.0L840.7,468.0L843.2,468.0L845.7,468.0L848.1,468.1L850.6,468.1L853.1,468.1L855.5,468.1L858.0,468.1L860.5,468.1L862.9,468.1L865.4,468.1L867.9,468.1L870.4,468.1L872.8,468.1L875.3,468.1L877.8,468.2L880.2,468.2L882.7,468.2L885.2,468.2L887.6,468.2L890.1,468.2L892.6,468.2L895.1,468.3L897.5,468.3L900.0,468.3" fill="none" stroke="#3cb44b" stroke-width="1.4" stroke-dasharray="4,3"/><text x="908" y="364" fill="#3cb44b">Σ feet external</text><rect x="70" y="510" width="830" height="140" fill="none" stroke="#999"/><text x="74" y="506" font-weight="bold">along the right foot, horizontal, from its heel's rear edge (m): COM vs ankle vs toe tip</text><line x1="102.11309523809521" x2="102.11309523809521" y1="510" y2="650" stroke="#bbb"/><text x="104.11309523809521" y="647" fill="#888" font-size="9">impact</text><line x1="235.50595238095238" x2="235.50595238095238" y1="510" y2="650" stroke="#bbb"/><text x="237.50595238095238" y="637" fill="#888" font-size="9">free rise ends</text><line x1="242.91666666666666" x2="242.91666666666666" y1="510" y2="650" stroke="#bbb"/><text x="244.91666666666666" y="627" fill="#888" font-size="9">peak</text><line x1="457.827380952381" x2="457.827380952381" y1="510" y2="650" stroke="#bbb"/><text x="459.827380952381" y="647" fill="#888" font-size="9">heel down</text><line x1="70" x2="70" y1="650" y2="654" stroke="#999"/><text x="70" y="664" text-anchor="middle" font-size="9" fill="#666">0.40</text><line x1="129.28571428571428" x2="129.28571428571428" y1="650" y2="654" stroke="#999"/><text x="129.28571428571428" y="664" text-anchor="middle" font-size="9" fill="#666">0.50</text><line x1="188.57142857142856" x2="188.57142857142856" y1="650" y2="654" stroke="#999"/><text x="188.57142857142856" y="664" text-anchor="middle" font-size="9" fill="#666">0.60</text><line x1="247.85714285714283" x2="247.85714285714283" y1="650" y2="654" stroke="#999"/><text x="247.85714285714283" y="664" text-anchor="middle" font-size="9" fill="#666">0.70</text><line x1="307.1428571428571" x2="307.1428571428571" y1="650" y2="654" stroke="#999"/><text x="307.1428571428571" y="664" text-anchor="middle" font-size="9" fill="#666">0.80</text><line x1="366.4285714285714" x2="366.4285714285714" y1="650" y2="654" stroke="#999"/><text x="366.4285714285714" y="664" text-anchor="middle" font-size="9" fill="#666">0.90</text><line x1="425.71428571428567" x2="425.71428571428567" y1="650" y2="654" stroke="#999"/><text x="425.71428571428567" y="664" text-anchor="middle" font-size="9" fill="#666">1.00</text><line x1="484.99999999999994" x2="484.99999999999994" y1="650" y2="654" stroke="#999"/><text x="484.99999999999994" y="664" text-anchor="middle" font-size="9" fill="#666">1.10</text><line x1="544.2857142857142" x2="544.2857142857142" y1="650" y2="654" stroke="#999"/><text x="544.2857142857142" y="664" text-anchor="middle" font-size="9" fill="#666">1.20</text><line x1="603.5714285714286" x2="603.5714285714286" y1="650" y2="654" stroke="#999"/><text x="603.5714285714286" y="664" text-anchor="middle" font-size="9" fill="#666">1.30</text><line x1="662.8571428571429" x2="662.8571428571429" y1="650" y2="654" stroke="#999"/><text x="662.8571428571429" y="664" text-anchor="middle" font-size="9" fill="#666">1.40</text><line x1="722.1428571428572" x2="722.1428571428572" y1="650" y2="654" stroke="#999"/><text x="722.1428571428572" y="664" text-anchor="middle" font-size="9" fill="#666">1.50</text><line x1="781.4285714285716" x2="781.4285714285716" y1="650" y2="654" stroke="#999"/><text x="781.4285714285716" y="664" text-anchor="middle" font-size="9" fill="#666">1.60</text><line x1="840.7142857142859" x2="840.7142857142859" y1="650" y2="654" stroke="#999"/><text x="840.7142857142859" y="664" text-anchor="middle" font-size="9" fill="#666">1.70</text><line x1="900.0000000000002" x2="900.0000000000002" y1="650" y2="654" stroke="#999"/><text x="900.0000000000002" y="664" text-anchor="middle" font-size="9" fill="#666">1.80</text><text x="64" y="520" text-anchor="end">0.293</text><text x="64" y="650" text-anchor="end">-0.369</text><line x1="70" x2="900" y1="572.0141877553888" y2="572.0141877553888" stroke="#ccc" stroke-dasharray="3,3"/><path d="M70.0,555.8L72.5,555.8L74.9,555.8L77.4,555.8L79.9,555.8L82.4,555.8L84.8,555.8L87.3,555.8L89.8,555.8L92.2,555.8L94.7,555.8L97.2,555.8L99.6,555.7L102.1,555.4L104.6,555.0L107.1,554.6L109.5,554.3L112.0,554.1L114.5,554.0L116.9,553.8L119.4,553.7L121.9,553.7L124.3,553.8L126.8,553.9L129.3,554.1L131.8,554.4L134.2,554.8L136.7,555.2L139.2,555.6L141.6,556.2L144.1,556.8L146.6,557.4L149.0,558.2L151.5,558.9L154.0,559.7L156.5,560.6L158.9,561.5L161.4,562.5L163.9,563.4L166.3,564.4L168.8,565.3L171.3,566.3L173.7,567.2L176.2,568.1L178.7,569.0L181.2,569.9L183.6,570.7L186.1,571.6L188.6,572.4L191.0,573.2L193.5,573.9L196.0,574.6L198.5,575.3L200.9,575.8L203.4,576.4L205.9,576.8L208.3,577.1L210.8,577.4L213.3,577.5L215.7,577.5L218.2,577.4L220.7,577.2L223.2,576.8L225.6,576.2L228.1,575.5L230.6,574.6L233.0,573.6L235.5,572.9L238.0,573.5L240.4,573.2L242.9,572.8L245.4,572.2L247.9,570.2L250.3,567.9L252.8,564.9L255.3,562.9L257.7,560.6L260.2,558.1L262.7,555.9L265.1,555.3L267.6,555.3L270.1,555.1L272.6,555.0L275.0,555.2L277.5,555.4L280.0,555.7L282.4,556.2L284.9,556.6L287.4,557.2L289.9,557.8L292.3,558.3L294.8,559.0L297.3,559.5L299.7,559.9L302.2,560.2L304.7,560.6L307.1,561.0L309.6,561.3L312.1,561.6L314.6,561.8L317.0,562.1L319.5,562.3L322.0,562.4L324.4,562.3L326.9,562.3L329.4,562.2L331.8,562.1L334.3,562.1L336.8,561.9L339.3,561.9L341.7,561.8L344.2,561.7L346.7,561.7L349.1,561.9L351.6,562.0L354.1,562.3L356.5,562.5L359.0,562.7L361.5,562.9L364.0,563.2L366.4,563.3L368.9,563.4L371.4,563.3L373.8,563.7L376.3,563.7L378.8,563.9L381.2,564.0L383.7,564.2L386.2,564.4L388.7,564.6L391.1,564.9L393.6,565.2L396.1,565.5L398.5,565.8L401.0,566.1L403.5,566.3L406.0,566.6L408.4,566.9L410.9,567.2L413.4,567.5L415.8,567.8L418.3,568.1L420.8,568.4L423.2,568.7L425.7,569.1L428.2,569.5L430.7,569.8L433.1,570.3L435.6,570.7L438.1,571.2L440.5,571.6L443.0,572.1L445.5,572.6L447.9,573.2L450.4,573.7L452.9,574.3L455.4,575.0L457.8,575.7L460.3,576.5L462.8,577.3L465.2,578.4L467.7,579.7L470.2,581.2L472.6,582.8L475.1,584.4L477.6,586.2L480.1,587.9L482.5,589.7L485.0,591.1L487.5,592.4L489.9,593.7L492.4,595.0L494.9,596.3L497.4,597.7L499.8,599.0L502.3,600.3L504.8,601.6L507.2,602.9L509.7,604.2L512.2,605.5L514.6,606.7L517.1,607.9L519.6,609.0L522.1,610.1L524.5,611.2L527.0,612.3L529.5,613.4L531.9,614.3L534.4,615.3L536.9,616.2L539.3,617.0L541.8,617.8L544.3,618.6L546.8,619.3L549.2,620.1L551.7,620.8L554.2,621.5L556.6,622.1L559.1,622.7L561.6,623.4L564.0,624.0L566.5,624.7L569.0,625.4L571.5,625.9L573.9,626.4L576.4,626.9L578.9,627.3L581.3,627.8L583.8,628.3L586.3,628.8L588.8,629.3L591.2,629.7L593.7,630.2L596.2,630.6L598.6,631.1L601.1,631.6L603.6,632.0L606.0,632.4L608.5,632.9L611.0,633.3L613.5,633.7L615.9,634.2L618.4,634.6L620.9,635.1L623.3,635.5L625.8,635.9L628.3,636.4L630.7,636.9L633.2,637.3L635.7,637.8L638.2,638.2L640.6,638.7L643.1,639.1L645.6,639.6L648.0,640.0L650.5,640.4L653.0,640.9L655.4,641.3L657.9,641.7L660.4,642.1L662.9,642.5L665.3,643.0L667.8,643.4L670.3,643.8L672.7,644.2L675.2,644.6L677.7,645.0L680.1,645.4L682.6,645.8L685.1,646.3L687.6,646.5L690.0,646.7L692.5,647.0L695.0,647.2L697.4,647.4L699.9,647.6L702.4,647.8L704.9,648.0L707.3,648.2L709.8,648.3L712.3,648.5L714.7,648.6L717.2,648.8L719.7,648.9L722.1,649.0L724.6,649.1L727.1,649.2L729.6,649.3L732.0,649.4L734.5,649.5L737.0,649.6L739.4,649.6L741.9,649.7L744.4,649.7L746.8,649.7L749.3,649.8L751.8,649.8L754.3,649.8L756.7,649.8L759.2,649.9L761.7,649.9L764.1,649.9L766.6,649.9L769.1,649.9L771.5,650.0L774.0,650.0L776.5,650.0L779.0,650.0L781.4,650.0L783.9,650.0L786.4,650.0L788.8,650.0L791.3,650.0L793.8,650.0L796.3,650.0L798.7,650.0L801.2,650.0L803.7,650.0L806.1,649.9L808.6,649.9L811.1,649.9L813.5,649.9L816.0,649.9L818.5,649.9L821.0,649.9L823.4,649.9L825.9,649.9L828.4,649.9L830.8,649.9L833.3,649.9L835.8,649.8L838.2,649.8L840.7,649.8L843.2,649.8L845.7,649.8L848.1,649.8L850.6,649.8L853.1,649.8L855.5,649.8L858.0,649.7L860.5,649.7L862.9,649.7L865.4,649.7L867.9,649.7L870.4,649.7L872.8,649.7L875.3,649.7L877.8,649.6L880.2,649.6L882.7,649.6L885.2,649.6L887.6,649.6L890.1,649.6L892.6,649.6L895.1,649.5L897.5,649.5L900.0,649.5" fill="none" stroke="#e6194b" stroke-width="1.4"/><text x="908" y="522" fill="#e6194b">COM</text><path d="M70.0,558.0L72.5,558.0L74.9,558.0L77.4,558.0L79.9,558.0L82.4,558.0L84.8,558.0L87.3,558.0L89.8,558.0L92.2,558.0L94.7,558.0L97.2,558.0L99.6,558.0L102.1,558.0L104.6,557.8L107.1,557.4L109.5,556.9L112.0,556.3L114.5,555.6L116.9,555.1L119.4,554.6L121.9,554.1L124.3,553.6L126.8,553.2L129.3,552.7L131.8,552.2L134.2,551.8L136.7,551.4L139.2,551.0L141.6,550.6L144.1,550.3L146.6,550.0L149.0,549.7L151.5,549.5L154.0,549.2L156.5,549.0L158.9,548.9L161.4,548.7L163.9,548.6L166.3,548.5L168.8,548.4L171.3,548.4L173.7,548.3L176.2,548.3L178.7,548.3L181.2,548.3L183.6,548.3L186.1,548.3L188.6,548.4L191.0,548.4L193.5,548.5L196.0,548.6L198.5,548.7L200.9,548.8L203.4,548.9L205.9,549.0L208.3,549.1L210.8,549.2L213.3,549.3L215.7,549.4L218.2,549.5L220.7,549.6L223.2,549.7L225.6,549.8L228.1,549.9L230.6,549.9L233.0,550.1L235.5,550.1L238.0,550.8L240.4,551.7L242.9,552.3L245.4,552.5L247.9,552.7L250.3,553.4L252.8,554.0L255.3,554.6L257.7,554.9L260.2,555.1L262.7,554.7L265.1,553.9L267.6,553.3L270.1,553.1L272.6,553.1L275.0,553.1L277.5,553.2L280.0,553.3L282.4,553.4L284.9,553.6L287.4,553.7L289.9,553.8L292.3,553.9L294.8,553.8L297.3,553.6L299.7,553.5L302.2,553.3L304.7,553.1L307.1,553.0L309.6,552.9L312.1,552.7L314.6,552.6L317.0,552.6L319.5,552.5L322.0,552.4L324.4,552.3L326.9,552.2L329.4,552.1L331.8,552.0L334.3,551.9L336.8,551.8L339.3,551.7L341.7,551.6L344.2,551.5L346.7,551.4L349.1,551.3L351.6,551.3L354.1,551.2L356.5,551.1L359.0,551.1L361.5,551.0L364.0,551.0L366.4,550.9L368.9,550.9L371.4,550.8L373.8,550.9L376.3,550.9L378.8,550.9L381.2,550.8L383.7,550.8L386.2,550.8L388.7,550.8L391.1,550.8L393.6,550.8L396.1,550.9L398.5,550.9L401.0,551.0L403.5,551.1L406.0,551.2L408.4,551.3L410.9,551.4L413.4,551.5L415.8,551.7L418.3,551.8L420.8,552.0L423.2,552.2L425.7,552.4L428.2,552.6L430.7,552.9L433.1,553.1L435.6,553.4L438.1,553.7L440.5,554.1L443.0,554.5L445.5,555.0L447.9,555.5L450.4,556.2L452.9,556.9L455.4,557.6L457.8,558.4L460.3,559.6L462.8,559.6L465.2,559.4L467.7,559.3L470.2,559.1L472.6,558.9L475.1,558.7L477.6,558.4L480.1,558.1L482.5,557.8L485.0,557.5L487.5,557.4L489.9,557.2L492.4,557.0L494.9,556.9L497.4,556.8L499.8,556.7L502.3,556.6L504.8,556.5L507.2,556.5L509.7,556.4L512.2,556.4L514.6,556.4L517.1,556.4L519.6,556.4L522.1,556.4L524.5,556.5L527.0,556.5L529.5,556.6L531.9,556.6L534.4,556.6L536.9,556.7L539.3,556.7L541.8,556.7L544.3,556.8L546.8,556.8L549.2,556.9L551.7,557.0L554.2,557.1L556.6,557.2L559.1,557.3L561.6,557.4L564.0,557.6L566.5,557.7L569.0,557.9L571.5,558.0L573.9,558.0L576.4,558.0L578.9,558.0L581.3,558.0L583.8,558.0L586.3,558.0L588.8,558.0L591.2,558.0L593.7,558.0L596.2,558.0L598.6,558.0L601.1,558.0L603.6,558.0L606.0,558.0L608.5,558.0L611.0,558.0L613.5,558.0L615.9,558.0L618.4,558.0L620.9,558.0L623.3,558.0L625.8,558.0L628.3,558.0L630.7,558.0L633.2,558.0L635.7,558.0L638.2,558.0L640.6,558.0L643.1,558.0L645.6,558.0L648.0,558.0L650.5,558.0L653.0,558.0L655.4,558.0L657.9,558.0L660.4,558.0L662.9,558.0L665.3,558.0L667.8,558.0L670.3,558.0L672.7,558.0L675.2,558.0L677.7,558.0L680.1,558.0L682.6,558.0L685.1,558.0L687.6,558.0L690.0,558.0L692.5,558.1L695.0,558.1L697.4,558.1L699.9,558.1L702.4,558.1L704.9,558.1L707.3,558.1L709.8,558.1L712.3,558.1L714.7,558.1L717.2,558.1L719.7,558.1L722.1,558.1L724.6,558.1L727.1,558.1L729.6,558.1L732.0,558.1L734.5,558.1L737.0,558.1L739.4,558.1L741.9,558.1L744.4,558.1L746.8,558.1L749.3,558.1L751.8,558.1L754.3,558.1L756.7,558.1L759.2,558.1L761.7,558.1L764.1,558.1L766.6,558.1L769.1,558.1L771.5,558.1L774.0,558.1L776.5,558.1L779.0,558.1L781.4,558.1L783.9,558.1L786.4,558.1L788.8,558.1L791.3,558.1L793.8,558.1L796.3,558.1L798.7,558.1L801.2,558.1L803.7,558.1L806.1,558.1L808.6,558.1L811.1,558.1L813.5,558.1L816.0,558.1L818.5,558.1L821.0,558.1L823.4,558.1L825.9,558.1L828.4,558.1L830.8,558.1L833.3,558.1L835.8,558.1L838.2,558.1L840.7,558.1L843.2,558.1L845.7,558.1L848.1,558.1L850.6,558.1L853.1,558.1L855.5,558.1L858.0,558.1L860.5,558.1L862.9,558.1L865.4,558.1L867.9,558.1L870.4,558.1L872.8,558.1L875.3,558.1L877.8,558.1L880.2,558.1L882.7,558.1L885.2,558.1L887.6,558.1L890.1,558.1L892.6,558.1L895.1,558.1L897.5,558.1L900.0,558.1" fill="none" stroke="#3cb44b" stroke-width="1.4"/><text x="908" y="534" fill="#3cb44b">ankle</text><path d="M70.0,510.0L72.5,510.0L74.9,510.0L77.4,510.0L79.9,510.0L82.4,510.0L84.8,510.0L87.3,510.0L89.8,510.0L92.2,510.0L94.7,510.0L97.2,510.0L99.6,510.0L102.1,510.0L104.6,510.0L107.1,510.0L109.5,510.1L112.0,510.3L114.5,510.5L116.9,510.8L119.4,511.1L121.9,511.5L124.3,512.0L126.8,512.5L129.3,513.1L131.8,513.8L134.2,514.6L136.7,515.4L139.2,516.3L141.6,517.3L144.1,518.3L146.6,519.4L149.0,520.5L151.5,521.6L154.0,522.8L156.5,523.9L158.9,525.1L161.4,526.2L163.9,527.4L166.3,528.5L168.8,529.8L171.3,531.0L173.7,532.3L176.2,533.6L178.7,534.9L181.2,536.2L183.6,537.4L186.1,538.7L188.6,539.9L191.0,541.1L193.5,542.2L196.0,543.4L198.5,544.4L200.9,545.5L203.4,546.4L205.9,547.3L208.3,548.2L210.8,548.9L213.3,549.6L215.7,550.2L218.2,550.7L220.7,551.0L223.2,551.2L225.6,551.3L228.1,551.3L230.6,551.2L233.0,550.9L235.5,550.6L238.0,552.7L240.4,554.7L242.9,555.2L245.4,554.7L247.9,554.1L250.3,554.6L252.8,554.5L255.3,554.2L257.7,553.2L260.2,551.6L262.7,549.5L265.1,547.1L267.6,545.4L270.1,544.2L272.6,543.3L275.0,542.6L277.5,542.1L280.0,541.7L282.4,541.5L284.9,541.4L287.4,541.3L289.9,541.2L292.3,541.0L294.8,540.8L297.3,540.5L299.7,540.2L302.2,539.8L304.7,539.5L307.1,539.2L309.6,538.9L312.1,538.6L314.6,538.4L317.0,538.0L319.5,537.7L322.0,537.4L324.4,537.0L326.9,536.7L329.4,536.3L331.8,535.9L334.3,535.5L336.8,535.1L339.3,534.8L341.7,534.4L344.2,534.0L346.7,533.6L349.1,533.3L351.6,532.9L354.1,532.6L356.5,532.2L359.0,531.7L361.5,531.2L364.0,530.6L366.4,530.1L368.9,529.4L371.4,528.5L373.8,527.7L376.3,526.9L378.8,526.0L381.2,525.2L383.7,524.4L386.2,523.6L388.7,522.9L391.1,522.2L393.6,521.5L396.1,520.9L398.5,520.2L401.0,519.6L403.5,519.0L406.0,518.5L408.4,517.9L410.9,517.4L413.4,516.9L415.8,516.3L418.3,515.8L420.8,515.3L423.2,514.9L425.7,514.4L428.2,513.9L430.7,513.5L433.1,513.0L435.6,512.6L438.1,512.2L440.5,511.8L443.0,511.4L445.5,511.0L447.9,510.6L450.4,510.3L452.9,510.1L455.4,510.0L457.8,510.0L460.3,510.2L462.8,510.2L465.2,510.2L467.7,510.1L470.2,510.1L472.6,510.1L475.1,510.0L477.6,510.0L480.1,510.0L482.5,510.0L485.0,510.0L487.5,510.0L489.9,510.1L492.4,510.1L494.9,510.1L497.4,510.1L499.8,510.2L502.3,510.2L504.8,510.2L507.2,510.2L509.7,510.2L512.2,510.2L514.6,510.2L517.1,510.2L519.6,510.2L522.1,510.2L524.5,510.2L527.0,510.2L529.5,510.2L531.9,510.2L534.4,510.2L536.9,510.2L539.3,510.2L541.8,510.1L544.3,510.1L546.8,510.1L549.2,510.1L551.7,510.1L554.2,510.1L556.6,510.1L559.1,510.0L561.6,510.0L564.0,510.0L566.5,510.0L569.0,510.0L571.5,510.0L573.9,510.0L576.4,510.0L578.9,510.0L581.3,510.0L583.8,510.0L586.3,510.0L588.8,510.0L591.2,510.0L593.7,510.0L596.2,510.0L598.6,510.0L601.1,510.0L603.6,510.0L606.0,510.0L608.5,510.0L611.0,510.0L613.5,510.0L615.9,510.0L618.4,510.0L620.9,510.0L623.3,510.0L625.8,510.0L628.3,510.0L630.7,510.0L633.2,510.0L635.7,510.0L638.2,510.0L640.6,510.0L643.1,510.0L645.6,510.0L648.0,510.0L650.5,510.0L653.0,510.0L655.4,510.0L657.9,510.0L660.4,510.0L662.9,510.0L665.3,510.0L667.8,510.0L670.3,510.0L672.7,510.0L675.2,510.0L677.7,510.0L680.1,510.0L682.6,510.0L685.1,510.0L687.6,510.0L690.0,510.0L692.5,510.0L695.0,510.0L697.4,510.0L699.9,510.0L702.4,510.0L704.9,510.0L707.3,510.0L709.8,510.0L712.3,510.0L714.7,510.0L717.2,510.0L719.7,510.0L722.1,510.0L724.6,510.0L727.1,510.0L729.6,510.0L732.0,510.0L734.5,510.0L737.0,510.0L739.4,510.0L741.9,510.0L744.4,510.0L746.8,510.0L749.3,510.0L751.8,510.0L754.3,510.0L756.7,510.0L759.2,510.0L761.7,510.0L764.1,510.0L766.6,510.0L769.1,510.0L771.5,510.0L774.0,510.0L776.5,510.0L779.0,510.0L781.4,510.0L783.9,510.0L786.4,510.0L788.8,510.0L791.3,510.0L793.8,510.0L796.3,510.0L798.7,510.0L801.2,510.0L803.7,510.0L806.1,510.0L808.6,510.0L811.1,510.0L813.5,510.0L816.0,510.0L818.5,510.0L821.0,510.0L823.4,510.0L825.9,510.0L828.4,510.0L830.8,510.0L833.3,510.0L835.8,510.0L838.2,510.0L840.7,510.0L843.2,510.0L845.7,510.0L848.1,510.0L850.6,510.0L853.1,510.0L855.5,510.0L858.0,510.0L860.5,510.0L862.9,510.0L865.4,510.0L867.9,510.0L870.4,510.0L872.8,510.0L875.3,510.0L877.8,510.0L880.2,510.0L882.7,510.0L885.2,510.0L887.6,510.0L890.1,510.0L892.6,510.0L895.1,510.0L897.5,510.0L900.0,510.0" fill="none" stroke="#4363d8" stroke-width="1.4"/><text x="908" y="546" fill="#4363d8">toe tip</text><rect x="70" y="680" width="830" height="140" fill="none" stroke="#999"/><text x="74" y="676" font-weight="bold">kinetic energy (J): total and internal (total − COM translation)</text><line x1="102.11309523809521" x2="102.11309523809521" y1="680" y2="820" stroke="#bbb"/><text x="104.11309523809521" y="817" fill="#888" font-size="9">impact</text><line x1="235.50595238095238" x2="235.50595238095238" y1="680" y2="820" stroke="#bbb"/><text x="237.50595238095238" y="807" fill="#888" font-size="9">free rise ends</text><line x1="242.91666666666666" x2="242.91666666666666" y1="680" y2="820" stroke="#bbb"/><text x="244.91666666666666" y="797" fill="#888" font-size="9">peak</text><line x1="457.827380952381" x2="457.827380952381" y1="680" y2="820" stroke="#bbb"/><text x="459.827380952381" y="817" fill="#888" font-size="9">heel down</text><line x1="70" x2="70" y1="820" y2="824" stroke="#999"/><text x="70" y="834" text-anchor="middle" font-size="9" fill="#666">0.40</text><line x1="129.28571428571428" x2="129.28571428571428" y1="820" y2="824" stroke="#999"/><text x="129.28571428571428" y="834" text-anchor="middle" font-size="9" fill="#666">0.50</text><line x1="188.57142857142856" x2="188.57142857142856" y1="820" y2="824" stroke="#999"/><text x="188.57142857142856" y="834" text-anchor="middle" font-size="9" fill="#666">0.60</text><line x1="247.85714285714283" x2="247.85714285714283" y1="820" y2="824" stroke="#999"/><text x="247.85714285714283" y="834" text-anchor="middle" font-size="9" fill="#666">0.70</text><line x1="307.1428571428571" x2="307.1428571428571" y1="820" y2="824" stroke="#999"/><text x="307.1428571428571" y="834" text-anchor="middle" font-size="9" fill="#666">0.80</text><line x1="366.4285714285714" x2="366.4285714285714" y1="820" y2="824" stroke="#999"/><text x="366.4285714285714" y="834" text-anchor="middle" font-size="9" fill="#666">0.90</text><line x1="425.71428571428567" x2="425.71428571428567" y1="820" y2="824" stroke="#999"/><text x="425.71428571428567" y="834" text-anchor="middle" font-size="9" fill="#666">1.00</text><line x1="484.99999999999994" x2="484.99999999999994" y1="820" y2="824" stroke="#999"/><text x="484.99999999999994" y="834" text-anchor="middle" font-size="9" fill="#666">1.10</text><line x1="544.2857142857142" x2="544.2857142857142" y1="820" y2="824" stroke="#999"/><text x="544.2857142857142" y="834" text-anchor="middle" font-size="9" fill="#666">1.20</text><line x1="603.5714285714286" x2="603.5714285714286" y1="820" y2="824" stroke="#999"/><text x="603.5714285714286" y="834" text-anchor="middle" font-size="9" fill="#666">1.30</text><line x1="662.8571428571429" x2="662.8571428571429" y1="820" y2="824" stroke="#999"/><text x="662.8571428571429" y="834" text-anchor="middle" font-size="9" fill="#666">1.40</text><line x1="722.1428571428572" x2="722.1428571428572" y1="820" y2="824" stroke="#999"/><text x="722.1428571428572" y="834" text-anchor="middle" font-size="9" fill="#666">1.50</text><line x1="781.4285714285716" x2="781.4285714285716" y1="820" y2="824" stroke="#999"/><text x="781.4285714285716" y="834" text-anchor="middle" font-size="9" fill="#666">1.60</text><line x1="840.7142857142859" x2="840.7142857142859" y1="820" y2="824" stroke="#999"/><text x="840.7142857142859" y="834" text-anchor="middle" font-size="9" fill="#666">1.70</text><line x1="900.0000000000002" x2="900.0000000000002" y1="820" y2="824" stroke="#999"/><text x="900.0000000000002" y="834" text-anchor="middle" font-size="9" fill="#666">1.80</text><text x="64" y="690" text-anchor="end">755</text><text x="64" y="820" text-anchor="end">-1.14e-13</text><line x1="70" x2="900" y1="820" y2="820" stroke="#ccc" stroke-dasharray="3,3"/><path d="M70.0,707.3L72.5,704.9L74.9,702.6L77.4,700.2L79.9,697.7L82.4,695.3L84.8,692.8L87.3,690.3L89.8,687.7L92.2,685.2L94.7,682.6L97.2,680.0L99.6,703.8L102.1,783.7L104.6,783.7L107.1,783.6L109.5,783.4L112.0,783.0L114.5,782.6L116.9,782.1L119.4,781.6L121.9,780.9L124.3,780.3L126.8,779.5L129.3,778.8L131.8,778.0L134.2,777.1L136.7,776.3L139.2,775.4L141.6,774.4L144.1,773.5L146.6,772.7L149.0,771.7L151.5,770.6L154.0,769.5L156.5,768.4L158.9,767.2L161.4,766.1L163.9,764.8L166.3,763.6L168.8,762.4L171.3,761.1L173.7,759.8L176.2,758.4L178.7,757.1L181.2,755.7L183.6,754.3L186.1,752.8L188.6,751.4L191.0,749.9L193.5,748.4L196.0,746.9L198.5,745.4L200.9,743.9L203.4,742.3L205.9,740.7L208.3,739.1L210.8,737.5L213.3,736.0L215.7,734.4L218.2,732.8L220.7,731.3L223.2,729.8L225.6,728.3L228.1,727.0L230.6,725.7L233.0,724.6L235.5,739.6L238.0,753.4L240.4,791.4L242.9,793.9L245.4,795.1L247.9,796.4L250.3,798.5L252.8,802.5L255.3,807.8L257.7,812.4L260.2,815.0L262.7,815.5L265.1,814.9L267.6,814.3L270.1,814.8L272.6,815.3L275.0,815.6L277.5,816.0L280.0,816.3L282.4,816.4L284.9,816.6L287.4,816.7L289.9,816.8L292.3,816.9L294.8,816.9L297.3,817.0L299.7,817.0L302.2,817.0L304.7,817.0L307.1,817.1L309.6,817.0L312.1,817.0L314.6,817.0L317.0,817.0L319.5,817.0L322.0,816.9L324.4,816.9L326.9,816.8L329.4,816.8L331.8,816.7L334.3,816.7L336.8,816.6L339.3,816.5L341.7,816.5L344.2,816.4L346.7,816.3L349.1,816.2L351.6,816.1L354.1,815.9L356.5,815.8L359.0,815.8L361.5,815.7L364.0,815.6L366.4,815.4L368.9,815.4L371.4,815.4L373.8,815.3L376.3,815.1L378.8,815.1L381.2,815.1L383.7,814.9L386.2,814.7L388.7,814.4L391.1,814.2L393.6,813.9L396.1,813.6L398.5,813.3L401.0,813.0L403.5,812.7L406.0,812.3L408.4,812.0L410.9,811.6L413.4,811.2L415.8,810.8L418.3,810.4L420.8,809.9L423.2,809.5L425.7,809.0L428.2,808.5L430.7,807.9L433.1,807.4L435.6,806.8L438.1,806.2L440.5,805.7L443.0,805.1L445.5,804.5L447.9,803.9L450.4,803.3L452.9,802.8L455.4,802.1L457.8,801.7L460.3,805.5L462.8,807.2L465.2,807.6L467.7,807.9L470.2,807.8L472.6,807.6L475.1,807.4L477.6,807.2L480.1,807.0L482.5,806.8L485.0,806.6L487.5,806.6L489.9,806.5L492.4,806.4L494.9,806.3L497.4,806.3L499.8,806.2L502.3,806.0L504.8,805.8L507.2,805.6L509.7,805.3L512.2,805.0L514.6,804.7L517.1,804.3L519.6,804.0L522.1,803.7L524.5,803.3L527.0,803.0L529.5,802.6L531.9,804.8L534.4,805.0L536.9,805.3L539.3,806.1L541.8,807.3L544.3,808.4L546.8,809.0L549.2,809.0L551.7,808.7L554.2,808.5L556.6,808.4L559.1,808.3L561.6,808.1L564.0,807.9L566.5,807.8L569.0,807.7L571.5,807.7L573.9,807.7L576.4,807.6L578.9,807.6L581.3,807.6L583.8,807.5L586.3,807.5L588.8,807.5L591.2,807.4L593.7,807.4L596.2,807.3L598.6,807.2L601.1,807.1L603.6,807.0L606.0,806.9L608.5,806.8L611.0,806.6L613.5,806.5L615.9,806.7L618.4,806.5L620.9,806.4L623.3,806.3L625.8,806.2L628.3,806.0L630.7,805.9L633.2,805.7L635.7,805.5L638.2,805.3L640.6,805.1L643.1,804.8L645.6,804.6L648.0,804.4L650.5,804.1L653.0,803.8L655.4,803.6L657.9,803.3L660.4,803.0L662.9,802.6L665.3,802.3L667.8,802.0L670.3,801.7L672.7,801.3L675.2,801.1L677.7,801.1L680.1,803.7L682.6,803.7L685.1,805.8L687.6,818.2L690.0,818.3L692.5,818.4L695.0,818.5L697.4,818.6L699.9,818.7L702.4,818.7L704.9,818.8L707.3,818.8L709.8,818.9L712.3,818.9L714.7,819.0L717.2,819.0L719.7,819.1L722.1,819.1L724.6,819.1L727.1,819.1L729.6,819.1L732.0,819.2L734.5,819.2L737.0,819.2L739.4,819.1L741.9,819.1L744.4,819.1L746.8,819.1L749.3,819.1L751.8,819.2L754.3,819.3L756.7,819.3L759.2,819.5L761.7,819.6L764.1,819.6L766.6,819.6L769.1,819.6L771.5,819.6L774.0,819.6L776.5,819.6L779.0,819.6L781.4,819.6L783.9,819.9L786.4,819.9L788.8,819.9L791.3,819.9L793.8,819.9L796.3,819.9L798.7,819.9L801.2,819.9L803.7,819.9L806.1,819.9L808.6,819.9L811.1,819.9L813.5,819.9L816.0,819.9L818.5,819.9L821.0,819.9L823.4,819.9L825.9,819.9L828.4,819.9L830.8,819.9L833.3,819.9L835.8,819.9L838.2,819.9L840.7,819.9L843.2,819.9L845.7,819.9L848.1,819.9L850.6,819.9L853.1,819.9L855.5,819.9L858.0,819.9L860.5,819.9L862.9,819.9L865.4,819.9L867.9,819.9L870.4,819.9L872.8,819.9L875.3,819.9L877.8,819.9L880.2,819.9L882.7,819.9L885.2,819.9L887.6,819.9L890.1,819.8L892.6,819.8L895.1,819.8L897.5,819.8L900.0,819.8" fill="none" stroke="#e6194b" stroke-width="1.4"/><text x="908" y="692" fill="#e6194b">KE</text><path d="M70.0,820.0L72.5,820.0L74.9,820.0L77.4,820.0L79.9,820.0L82.4,820.0L84.8,820.0L87.3,820.0L89.8,820.0L92.2,820.0L94.7,820.0L97.2,820.0L99.6,819.6L102.1,795.1L104.6,795.9L107.1,796.6L109.5,797.1L112.0,797.5L114.5,797.8L116.9,797.9L119.4,798.1L121.9,798.3L124.3,798.5L126.8,798.7L129.3,798.9L131.8,799.0L134.2,799.2L136.7,799.3L139.2,799.4L141.6,799.5L144.1,799.7L146.6,800.0L149.0,800.1L151.5,800.2L154.0,800.3L156.5,800.4L158.9,800.5L161.4,800.5L163.9,800.6L166.3,800.7L168.8,800.6L171.3,800.6L173.7,800.6L176.2,800.6L178.7,800.6L181.2,800.6L183.6,800.6L186.1,800.5L188.6,800.5L191.0,800.4L193.5,800.3L196.0,800.3L198.5,800.2L200.9,800.0L203.4,799.9L205.9,799.7L208.3,799.5L210.8,799.3L213.3,799.0L215.7,798.8L218.2,798.5L220.7,798.1L223.2,797.7L225.6,797.2L228.1,796.7L230.6,796.0L233.0,795.3L235.5,788.9L238.0,787.2L240.4,799.5L242.9,799.2L245.4,800.2L247.9,801.2L250.3,803.0L252.8,806.2L255.3,810.5L257.7,814.2L260.2,816.2L262.7,816.4L265.1,815.7L267.6,815.1L270.1,815.6L272.6,816.1L275.0,816.5L277.5,816.9L280.0,817.3L282.4,817.5L284.9,817.7L287.4,817.8L289.9,818.0L292.3,818.1L294.8,818.2L297.3,818.3L299.7,818.4L302.2,818.4L304.7,818.4L307.1,818.5L309.6,818.5L312.1,818.5L314.6,818.6L317.0,818.6L319.5,818.6L322.0,818.6L324.4,818.6L326.9,818.7L329.4,818.7L331.8,818.7L334.3,818.7L336.8,818.7L339.3,818.8L341.7,818.8L344.2,818.8L346.7,818.8L349.1,818.8L351.6,818.8L354.1,818.8L356.5,818.8L359.0,819.0L361.5,819.0L364.0,819.0L366.4,819.0L368.9,819.1L371.4,819.3L373.8,819.4L376.3,819.4L378.8,819.6L381.2,819.8L383.7,819.8L386.2,819.8L388.7,819.8L391.1,819.8L393.6,819.8L396.1,819.8L398.5,819.7L401.0,819.7L403.5,819.7L406.0,819.7L408.4,819.7L410.9,819.7L413.4,819.7L415.8,819.7L418.3,819.7L420.8,819.7L423.2,819.7L425.7,819.7L428.2,819.6L430.7,819.6L433.1,819.6L435.6,819.6L438.1,819.6L440.5,819.6L443.0,819.6L445.5,819.5L447.9,819.5L450.4,819.5L452.9,819.4L455.4,819.4L457.8,819.4L460.3,817.3L462.8,817.0L465.2,816.7L467.7,816.8L470.2,816.7L472.6,816.6L475.1,816.4L477.6,816.1L480.1,815.7L482.5,815.5L485.0,815.5L487.5,815.5L489.9,815.5L492.4,815.6L494.9,815.7L497.4,815.8L499.8,815.7L502.3,815.5L504.8,815.2L507.2,814.9L509.7,814.5L512.2,814.2L514.6,813.9L517.1,813.6L519.6,813.3L522.1,813.0L524.5,812.8L527.0,812.6L529.5,812.4L531.9,810.6L534.4,810.4L536.9,810.4L539.3,811.0L541.8,811.9L544.3,812.7L546.8,813.0L549.2,812.8L551.7,812.3L554.2,811.9L556.6,811.8L559.1,811.6L561.6,811.4L564.0,811.2L566.5,811.0L569.0,810.9L571.5,810.8L573.9,810.9L576.4,810.8L578.9,810.8L581.3,810.8L583.8,810.7L586.3,810.7L588.8,810.7L591.2,810.7L593.7,810.6L596.2,810.6L598.6,810.5L601.1,810.5L603.6,810.4L606.0,810.4L608.5,810.3L611.0,810.2L613.5,810.2L615.9,810.2L618.4,810.2L620.9,810.1L623.3,810.0L625.8,810.0L628.3,810.0L630.7,809.9L633.2,809.9L635.7,809.7L638.2,809.6L640.6,809.5L643.1,809.4L645.6,809.2L648.0,809.1L650.5,809.0L653.0,808.8L655.4,808.7L657.9,808.5L660.4,808.3L662.9,808.1L665.3,808.0L667.8,807.8L670.3,807.6L672.7,807.4L675.2,807.2L677.7,807.0L680.1,808.4L682.6,808.4L685.1,810.4L687.6,819.4L690.0,819.5L692.5,819.5L695.0,819.5L697.4,819.6L699.9,819.6L702.4,819.6L704.9,819.6L707.3,819.6L709.8,819.6L712.3,819.6L714.7,819.6L717.2,819.6L719.7,819.6L722.1,819.6L724.6,819.6L727.1,819.6L729.6,819.6L732.0,819.6L734.5,819.5L737.0,819.5L739.4,819.5L741.9,819.5L744.4,819.4L746.8,819.4L749.3,819.4L751.8,819.4L754.3,819.5L756.7,819.5L759.2,819.7L761.7,819.7L764.1,819.7L766.6,819.7L769.1,819.7L771.5,819.7L774.0,819.7L776.5,819.7L779.0,819.7L781.4,819.7L783.9,819.9L786.4,819.9L788.8,819.9L791.3,819.9L793.8,819.9L796.3,819.9L798.7,819.9L801.2,819.9L803.7,819.9L806.1,819.9L808.6,819.9L811.1,819.9L813.5,819.9L816.0,819.9L818.5,819.9L821.0,819.9L823.4,819.9L825.9,819.9L828.4,819.9L830.8,819.9L833.3,819.9L835.8,819.9L838.2,819.9L840.7,819.9L843.2,819.9L845.7,819.9L848.1,819.9L850.6,819.9L853.1,819.9L855.5,819.9L858.0,819.9L860.5,819.9L862.9,819.9L865.4,819.9L867.9,819.9L870.4,819.9L872.8,819.9L875.3,819.9L877.8,819.9L880.2,819.9L882.7,819.9L885.2,819.9L887.6,819.9L890.1,819.9L892.6,819.9L895.1,819.9L897.5,819.9L900.0,819.9" fill="none" stroke="#3cb44b" stroke-width="1.4"/><text x="908" y="704" fill="#3cb44b">KE internal</text><text x="485" y="844" text-anchor="middle">time (s)</text></svg>