<svg xmlns="http://www.w3.org/2000/svg" width="760" height="760"><g transform="translate(0,0)"><svg xmlns="http://www.w3.org/2000/svg" width="760" height="190" style="background:#0f1216;font-family:Menlo,monospace;font-size:10px">
<text x="44" y="13" fill="#ffdc78" font-size="11">42 S4 K2 high tip-up (POWER 28 m/s under the bar) (Courtois) — PELVIS HEIGHT by layer</text>
<line x1="277.5" y1="22" x2="277.5" y2="164" stroke="#3a4a5a" stroke-dasharray="3,3"/><text x="279.5" y="161" fill="#6f8aa5" font-size="8">FOLLOW</text>
<line x1="305.8" y1="22" x2="305.8" y2="164" stroke="#3a4a5a" stroke-dasharray="3,3"/><text x="307.8" y="161" fill="#6f8aa5" font-size="8">DESCENT</text>
<line x1="362.4" y1="22" x2="362.4" y2="164" stroke="#3a4a5a" stroke-dasharray="3,3"/><text x="364.4" y="161" fill="#6f8aa5" font-size="8">IMPACT</text>
<line x1="397.8" y1="22" x2="397.8" y2="164" stroke="#3a4a5a" stroke-dasharray="3,3"/><text x="399.8" y="161" fill="#6f8aa5" font-size="8">ABSORB</text>
<line x1="447.3" y1="22" x2="447.3" y2="164" stroke="#3a4a5a" stroke-dasharray="3,3"/><text x="449.3" y="161" fill="#6f8aa5" font-size="8">SETTLE</text>
<line x1="532.2" y1="22" x2="532.2" y2="164" stroke="#3a4a5a" stroke-dasharray="3,3"/><text x="534.2" y="161" fill="#6f8aa5" font-size="8">BRACE</text>
<line x1="595.9" y1="22" x2="595.9" y2="164" stroke="#3a4a5a" stroke-dasharray="3,3"/><text x="597.9" y="161" fill="#6f8aa5" font-size="8">PUSH_UP</text>
<line x1="659.6" y1="22" x2="659.6" y2="164" stroke="#3a4a5a" stroke-dasharray="3,3"/><text x="661.6" y="161" fill="#6f8aa5" font-size="8">HALF_KNEEL</text>
<line x1="733.8" y1="22" x2="733.8" y2="164" stroke="#3a4a5a" stroke-dasharray="3,3"/><text x="735.8" y="161" fill="#6f8aa5" font-size="8">CROUCH</text>
<line x1="178.4" y1="22" x2="178.4" y2="164" stroke="#5a6a3a"/><text x="180.4" y="31" fill="#5a6a3a" font-size="8" transform="rotate(90 180.4,31)">LOAD</text>
<line x1="182.0" y1="22" x2="182.0" y2="164" stroke="#5a6a3a"/><text x="184.0" y="31" fill="#5a6a3a" font-size="8" transform="rotate(90 184.0,31)">PLANT</text>
<line x1="192.6" y1="22" x2="192.6" y2="164" stroke="#5a6a3a"/><text x="194.6" y="31" fill="#5a6a3a" font-size="8" transform="rotate(90 194.6,31)">PUSH_MID</text>
<line x1="199.7" y1="22" x2="199.7" y2="164" stroke="#5a6a3a"/><text x="201.7" y="31" fill="#5a6a3a" font-size="8" transform="rotate(90 201.7,31)">PUSH_END</text>
<line x1="206.7" y1="22" x2="206.7" y2="164" stroke="#5a6a3a"/><text x="208.7" y="31" fill="#5a6a3a" font-size="8" transform="rotate(90 208.7,31)">TOE_OFF</text>
<line x1="220.9" y1="22" x2="220.9" y2="164" stroke="#5a6a3a"/><text x="222.9" y="31" fill="#5a6a3a" font-size="8" transform="rotate(90 222.9,31)">EARLY_FLIGHT</text>
<line x1="245.6" y1="22" x2="245.6" y2="164" stroke="#5a6a3a"/><text x="247.6" y="31" fill="#5a6a3a" font-size="8" transform="rotate(90 247.6,31)">MID_FLIGHT</text>
<line x1="263.3" y1="22" x2="263.3" y2="164" stroke="#ff5252"/><text x="265.3" y="31" fill="#ff5252" font-size="8" transform="rotate(90 265.3,31)">CONTACT</text>
<line x1="266.9" y1="22" x2="266.9" y2="164" stroke="#5a6a3a"/><text x="268.9" y="31" fill="#5a6a3a" font-size="8" transform="rotate(90 268.9,31)">FULL_EXTENSION</text>
<line x1="44" y1="164.0" x2="748" y2="164.0" stroke="#222a33"/><text x="2" y="167.0" fill="#8a97a6">0.00</text>
<line x1="44" y1="128.5" x2="748" y2="128.5" stroke="#222a33"/><text x="2" y="131.5" fill="#8a97a6">0.65</text>
<line x1="44" y1="93.0" x2="748" y2="93.0" stroke="#222a33"/><text x="2" y="96.0" fill="#8a97a6">1.30</text>
<line x1="44" y1="57.5" x2="748" y2="57.5" stroke="#222a33"/><text x="2" y="60.5" fill="#8a97a6">1.95</text>
<line x1="44" y1="22.0" x2="748" y2="22.0" stroke="#222a33"/><text x="2" y="25.0" fill="#8a97a6">2.60</text>
<text x="38.0" y="182" fill="#8a97a6">0</text>
<text x="108.8" y="182" fill="#8a97a6">20</text>
<text x="179.5" y="182" fill="#8a97a6">40</text>
<text x="250.3" y="182" fill="#8a97a6">60</text>
<text x="321.0" y="182" fill="#8a97a6">80</text>
<text x="391.8" y="182" fill="#8a97a6">100</text>
<text x="462.5" y="182" fill="#8a97a6">120</text>
<text x="533.3" y="182" fill="#8a97a6">140</text>
<text x="604.0" y="182" fill="#8a97a6">160</text>
<text x="674.8" y="182" fill="#8a97a6">180</text>
<text x="688" y="182" fill="#8a97a6">tick (60 Hz)</text><text x="2" y="18" fill="#8a97a6">height [m]</text>
<path d="M178.4,131.8 L182.0,132.0 L185.5,131.9 L189.0,131.2 L192.6,130.1 L196.1,127.4 L199.7,122.0 L203.2,117.0 L206.7,112.5 L210.3,110.7 L213.8,109.1 L217.3,107.2 L220.9,105.4 L224.4,103.6 L228.0,102.1 L231.5,100.9 L235.0,99.9 L238.6,99.1 L242.1,98.5 L245.6,97.9 L249.2,97.5 L252.7,97.1 L256.3,96.6 L259.8,96.3 L263.3,96.1 L266.9,95.9 L270.4,95.8 L273.9,95.7" fill="none" stroke="#f28b82" stroke-width="1.4"/>
<rect x="48" y="24" width="10" height="3" fill="#f28b82"/><text x="61" y="28" fill="#f28b82">authored (V6 keys + sim root)</text>
<path d="M178.4,131.8 L182.0,132.0 L185.5,131.9 L189.0,131.2 L192.6,130.1 L196.1,127.4 L199.7,122.0 L203.2,117.0 L206.7,112.4 L210.3,110.4 L213.8,108.1 L217.3,105.4 L220.9,102.6 L224.4,99.8 L228.0,97.2 L231.5,95.0 L235.0,93.0 L238.6,91.2 L242.1,89.6 L245.6,88.2 L249.2,86.8 L252.7,85.6 L256.3,84.6 L259.8,83.8 L263.3,83.1 L266.9,82.6 L270.4,82.2 L273.9,82.1" fill="none" stroke="#fdd663" stroke-width="1.4"/>
<rect x="250.8" y="24" width="10" height="3" fill="#fdd663"/><text x="263.8" y="28" fill="#fdd663">after axis redirect</text>
<path d="M44.0,117.6 L47.5,117.7 L51.1,117.8 L54.6,117.9 L58.2,118.1 L61.7,118.4 L65.2,118.6 L68.8,118.9 L72.3,119.2 L75.8,119.5 L79.4,119.8 L82.9,120.2 L86.5,120.5 L90.0,120.9 L93.5,121.2 L97.1,121.6 L100.6,121.9 L104.1,122.2 L107.7,122.5 L111.2,122.8 L114.8,123.1 L118.3,123.4 L121.8,123.6 L125.4,123.8 L128.9,123.9 L132.4,124.0 L136.0,124.1 L139.5,124.1 L143.1,124.1 L146.6,124.3 L150.1,124.7 L153.7,125.3 L157.2,126.2 L160.7,127.3 L164.3,128.3 L167.8,129.4 L171.4,130.5 L174.9,131.5 L178.4,131.8 L182.0,132.0 L185.5,131.9 L189.0,131.2 L192.6,130.3 L196.1,128.8 L199.7,126.8 L203.2,124.2 L206.7,121.0 L210.3,117.7 L213.8,114.4 L217.3,111.3 L220.9,108.4 L224.4,105.6 L228.0,103.0 L231.5,100.5 L235.0,98.1 L238.6,95.9 L242.1,93.9 L245.6,92.0 L249.2,90.2 L252.7,88.6 L256.3,87.2 L259.8,85.9 L263.3,84.7 L266.9,83.7 L270.4,82.9 L273.9,82.2 L277.5,81.6 L281.0,81.2 L284.6,80.9 L288.1,80.8 L291.6,80.9 L295.2,81.1 L298.7,81.4 L302.3,81.9 L305.8,82.5 L309.3,83.3 L312.9,84.2 L316.4,85.3 L319.9,86.5 L323.5,87.9 L327.0,89.4 L330.6,91.1 L334.1,92.9 L337.6,94.9 L341.2,97.0 L344.7,99.3 L348.2,101.7 L351.8,104.3 L355.3,107.0 L358.9,109.9 L362.4,112.9 L365.9,115.7 L369.5,118.1 L373.0,120.4 L376.5,122.4 L380.1,124.2 L383.6,125.9 L387.2,127.5 L390.7,129.1 L394.2,130.7 L397.8,132.3 L401.3,133.9 L404.8,135.6 L408.4,137.3 L411.9,138.9 L415.5,140.5 L419.0,142.1 L422.5,143.5 L426.1,144.8 L429.6,145.9 L433.1,146.9 L436.7,147.7 L440.2,148.3 L443.8,148.6 L447.3,148.7 L450.8,148.7 L454.4,148.7 L457.9,148.7 L461.4,148.7 L465.0,148.7 L468.5,148.7 L472.1,148.7 L475.6,148.7 L479.1,148.7 L482.7,148.7 L486.2,148.7 L489.7,148.7 L493.3,148.7 L496.8,148.7 L500.4,148.7 L503.9,148.7 L507.4,148.7 L511.0,148.7 L514.5,148.7 L518.1,148.7 L521.6,148.7 L525.1,148.7 L528.7,148.7 L532.2,148.7 L535.7,148.6 L539.3,148.5 L542.8,148.3 L546.4,148.1 L549.9,147.8 L553.4,147.5 L557.0,147.2 L560.5,146.8 L564.0,146.4 L567.6,146.1 L571.1,145.7 L574.7,145.4 L578.2,145.1 L581.7,144.8 L585.3,144.6 L588.8,144.5 L592.3,144.4 L595.9,144.3 L599.4,144.3 L603.0,144.1 L606.5,143.9 L610.0,143.6 L613.6,143.2 L617.1,142.8 L620.6,142.4 L624.2,142.0 L627.7,141.5 L631.3,141.0 L634.8,140.6 L638.3,140.2 L641.9,139.8 L645.4,139.5 L648.9,139.2 L652.5,139.0 L656.0,138.9 L659.6,138.9 L663.1,138.6 L666.6,138.1 L670.2,137.5 L673.7,136.9 L677.2,136.2 L680.8,135.8 L684.3,135.6 L687.9,135.6 L691.4,135.6 L694.9,135.6 L698.5,135.6 L702.0,135.6 L705.5,135.6 L709.1,135.6 L712.6,135.6 L716.2,135.6 L719.7,135.6 L723.2,135.6 L726.8,135.6 L730.3,135.6 L733.8,135.6 L737.4,135.5 L740.9,135.4 L744.5,135.1 L748.0,134.8" fill="none" stroke="#81c995" stroke-width="1.4"/>
<rect x="391.6" y="24" width="10" height="3" fill="#81c995"/><text x="404.6" y="28" fill="#81c995">after launch/landing plan</text>
<path d="M44.0,117.6 L47.5,117.7 L51.1,117.8 L54.6,117.9 L58.2,118.1 L61.7,118.4 L65.2,118.6 L68.8,118.9 L72.3,119.2 L75.8,119.5 L79.4,119.8 L82.9,120.2 L86.5,120.5 L90.0,120.9 L93.5,121.2 L97.1,121.6 L100.6,121.9 L104.1,122.2 L107.7,122.5 L111.2,122.8 L114.8,123.1 L118.3,123.4 L121.8,123.6 L125.4,123.8 L128.9,123.9 L132.4,124.0 L136.0,124.1 L139.5,124.1 L143.1,124.1 L146.6,124.3 L150.1,124.7 L153.7,125.3 L157.2,126.2 L160.7,127.3 L164.3,128.3 L167.8,129.4 L171.4,130.5 L174.9,131.5 L178.4,131.8 L182.0,132.0 L185.5,131.9 L189.0,131.2 L192.6,130.3 L196.1,128.8 L199.7,126.8 L203.2,124.2 L206.7,121.0 L210.3,117.7 L213.8,114.4 L217.3,111.3 L220.9,108.4 L224.4,105.6 L228.0,103.0 L231.5,100.5 L235.0,98.1 L238.6,95.9 L242.1,93.9 L245.6,92.0 L249.2,90.2 L252.7,88.6 L256.3,87.2 L259.8,85.9 L263.3,84.7 L266.9,83.7 L270.4,82.9 L273.9,82.2 L277.5,81.6 L281.0,81.2 L284.6,80.9 L288.1,80.8 L291.6,80.9 L295.2,81.1 L298.7,81.4 L302.3,81.9 L305.8,82.5 L309.3,83.3 L312.9,84.2 L316.4,85.3 L319.9,86.5 L323.5,87.9 L327.0,89.4 L330.6,91.1 L334.1,92.9 L337.6,94.9 L341.2,97.0 L344.7,99.3 L348.2,101.7 L351.8,104.3 L355.3,107.0 L358.9,109.9 L362.4,112.9 L365.9,115.7 L369.5,118.1 L373.0,120.4 L376.5,122.4 L380.1,124.2 L383.6,125.9 L387.2,127.5 L390.7,129.1 L394.2,130.7 L397.8,132.3 L401.3,133.9 L404.8,135.6 L408.4,137.3 L411.9,138.9 L415.5,140.5 L419.0,142.1 L422.5,143.5 L426.1,144.8 L429.6,145.9 L433.1,146.9 L436.7,147.7 L440.2,148.3 L443.8,148.6 L447.3,148.7 L450.8,148.7 L454.4,148.7 L457.9,148.7 L461.4,148.7 L465.0,148.7 L468.5,148.7 L472.1,148.7 L475.6,148.7 L479.1,148.7 L482.7,148.7 L486.2,148.7 L489.7,148.7 L493.3,148.7 L496.8,148.7 L500.4,148.7 L503.9,148.7 L507.4,148.7 L511.0,148.7 L514.5,148.7 L518.1,148.7 L521.6,148.7 L525.1,148.7 L528.7,148.7 L532.2,148.7 L535.7,148.6 L539.3,148.5 L542.8,148.3 L546.4,148.1 L549.9,147.8 L553.4,147.5 L557.0,147.2 L560.5,146.8 L564.0,146.4 L567.6,146.1 L571.1,145.7 L574.7,145.4 L578.2,145.1 L581.7,144.8 L585.3,144.6 L588.8,144.5 L592.3,144.4 L595.9,144.3 L599.4,144.3 L603.0,144.1 L606.5,143.9 L610.0,143.6 L613.6,143.2 L617.1,142.8 L620.6,142.4 L624.2,142.0 L627.7,141.5 L631.3,141.0 L634.8,140.6 L638.3,140.2 L641.9,139.8 L645.4,139.5 L648.9,139.2 L652.5,139.0 L656.0,138.9 L659.6,138.9 L663.1,138.6 L666.6,138.1 L670.2,137.5 L673.7,136.9 L677.2,136.2 L680.8,135.8 L684.3,135.6 L687.9,134.5 L691.4,134.6 L694.9,135.4 L698.5,135.6 L702.0,135.6 L705.5,135.6 L709.1,135.6 L712.6,135.6 L716.2,135.6 L719.7,135.6 L723.2,135.6 L726.8,135.6 L730.3,135.6 L733.8,135.6 L737.4,135.5 L740.9,135.4 L744.5,135.1 L748.0,134.6" fill="none" stroke="#ffffff" stroke-width="1.4"/>
<rect x="569.6" y="24" width="10" height="3" fill="#ffffff"/><text x="582.6" y="28" fill="#ffffff">final (assist + IK)</text>
<path d="M44.0,108.8 L47.5,109.0 L51.1,109.2 L54.6,109.6 L58.2,110.0 L61.7,110.5 L65.2,111.0 L68.8,111.6 L72.3,112.2 L75.8,112.9 L79.4,113.6 L82.9,114.3 L86.5,115.0 L90.0,115.8 L93.5,116.5 L97.1,117.2 L100.6,117.9 L104.1,118.6 L107.7,119.2 L111.2,119.8 L114.8,120.3 L118.3,120.8 L121.8,121.3 L125.4,121.6 L128.9,121.9 L132.4,122.2 L136.0,122.3 L139.5,122.4 L143.1,122.4 L146.6,124.0 L150.1,126.5 L153.7,130.1 L157.2,134.7 L160.7,140.0 L164.3,144.9 L167.8,148.9 L171.4,152.2 L174.9,154.1 L178.4,155.9 L182.0,155.9 L185.5,156.0 L189.0,155.6 L192.6,151.4 L196.1,142.8 L199.7,132.1 L203.2,121.6 L206.7,112.0 L210.3,100.6 L213.8,90.2 L217.3,81.0 L220.9,72.8 L224.4,65.5 L228.0,59.1 L231.5,53.3 L235.0,48.0 L238.6,43.2 L242.1,38.5 L245.6,34.3 L249.2,30.7 L252.7,28.1 L256.3,25.8 L259.8,23.7 L263.3,22.0 L266.9,22.0 L270.4,22.0 L273.9,22.0 L277.5,22.0 L281.0,22.0 L284.6,22.0 L288.1,22.0 L291.6,22.0 L295.2,22.0 L298.7,22.0 L302.3,22.0 L305.8,22.0 L309.3,23.8 L312.9,26.4 L316.4,29.7 L319.9,33.9 L323.5,39.3 L327.0,45.5 L330.6,52.4 L334.1,60.1 L337.6,68.6 L341.2,77.9 L344.7,88.4 L348.2,99.3 L351.8,104.3 L355.3,108.0 L358.9,111.5 L362.4,114.9 L365.9,118.2 L369.5,122.2 L373.0,127.1 L376.5,132.8 L380.1,138.4 L383.6,143.4 L387.2,147.1 L390.7,149.8 L394.2,151.8 L397.8,154.2 L401.3,157.4 L404.8,161.2 L408.4,164.0 L411.9,164.0 L415.5,164.0 L419.0,164.0 L422.5,164.0 L426.1,163.4 L429.6,159.5 L433.1,156.7 L436.7,154.9 L440.2,154.1 L443.8,154.1 L447.3,154.2 L450.8,154.2 L454.4,154.2 L457.9,154.2 L461.4,154.2 L465.0,154.2 L468.5,154.2 L472.1,154.2 L475.6,154.2 L479.1,154.2 L482.7,154.2 L486.2,154.2 L489.7,154.2 L493.3,154.2 L496.8,154.2 L500.4,154.2 L503.9,154.2 L507.4,154.2 L511.0,154.2 L514.5,154.2 L518.1,154.2 L521.6,154.2 L525.1,154.2 L528.7,154.2 L532.2,154.2 L535.7,154.1 L539.3,154.1 L542.8,154.0 L546.4,153.8 L549.9,153.7 L553.4,153.5 L557.0,153.3 L560.5,153.1 L564.0,152.9 L567.6,152.7 L571.1,152.5 L574.7,152.4 L578.2,152.3 L581.7,152.2 L585.3,152.2 L588.8,152.1 L592.3,152.1 L595.9,152.1 L599.4,152.1 L603.0,152.2 L606.5,152.2 L610.0,152.3 L613.6,152.6 L617.1,153.1 L620.6,153.8 L624.2,154.8 L627.7,156.0 L631.3,157.3 L634.8,158.4 L638.3,159.4 L641.9,160.1 L645.4,160.6 L648.9,160.9 L652.5,161.1 L656.0,161.2 L659.6,161.3 L663.1,161.4 L666.6,161.6 L670.2,161.8 L673.7,162.2 L677.2,161.6 L680.8,159.6 L684.3,157.8 L687.9,155.3 L691.4,154.1 L694.9,153.9 L698.5,153.2 L702.0,152.3 L705.5,151.3 L709.1,150.0 L712.6,147.7 L716.2,145.5 L719.7,143.9 L723.2,143.0 L726.8,142.8 L730.3,142.8 L733.8,142.8 L737.4,142.7 L740.9,142.5 L744.5,142.2 L748.0,141.6" fill="none" stroke="#ff8bcb" stroke-width="1.4" stroke-dasharray="4,2"/>
<rect x="710.4000000000001" y="24" width="10" height="3" fill="#ff8bcb"/><text x="723.4000000000001" y="28" fill="#ff8bcb">reach hand tip</text>
<path d="M44.0,83.1 L47.5,83.1 L51.1,83.1 L54.6,83.1 L58.2,83.1 L61.7,83.1 L65.2,83.1 L68.8,83.1 L72.3,83.1 L75.8,83.1 L79.4,83.1 L82.9,83.1 L86.5,83.1 L90.0,83.1 L93.5,83.1 L97.1,83.1 L100.6,83.1 L104.1,83.1 L107.7,83.1 L111.2,83.1 L114.8,83.1 L118.3,83.1 L121.8,83.1 L125.4,83.1 L128.9,83.1 L132.4,83.1 L136.0,83.1 L139.5,83.1 L143.1,83.1 L146.6,83.1 L150.1,83.1 L153.7,83.1 L157.2,83.1 L160.7,83.1 L164.3,83.1 L167.8,83.1 L171.4,83.1 L174.9,83.1 L178.4,83.1 L182.0,82.5 L185.5,81.5 L189.0,80.1 L192.6,78.4 L196.1,76.3 L199.7,73.9 L203.2,71.2 L206.7,68.3 L210.3,65.2 L213.8,61.9 L217.3,58.5 L220.9,55.0 L224.4,51.5 L228.0,48.0 L231.5,44.4 L235.0,41.0 L238.6,37.6 L242.1,34.4 L245.6,31.4 L249.2,28.5 L252.7,26.0 L256.3,23.7 L259.8,22.0 L263.3,22.0 L266.9,22.0 L270.4,22.0 L273.9,22.0 L277.5,22.0 L281.0,22.0 L284.6,22.0 L288.1,22.0 L291.6,22.0 L295.2,22.0 L298.7,22.0 L302.3,22.0 L305.8,22.0 L309.3,22.0 L312.9,22.0 L316.4,22.0 L319.9,22.0 L323.5,22.0 L327.0,22.0 L330.6,22.0 L334.1,22.0 L337.6,22.0 L341.2,22.0 L344.7,22.0 L348.2,22.0 L351.8,22.0 L355.3,22.0 L358.9,22.0 L362.4,22.0 L365.9,22.0 L369.5,22.0 L373.0,22.0 L376.5,22.0 L380.1,22.0 L383.6,22.0 L387.2,22.0 L390.7,22.0 L394.2,22.0 L397.8,22.0 L401.3,22.0 L404.8,22.0 L408.4,22.0 L411.9,22.0 L415.5,22.0 L419.0,22.0 L422.5,22.0 L426.1,22.0 L429.6,22.0 L433.1,22.0 L436.7,22.0 L440.2,22.0 L443.8,22.0 L447.3,22.0 L450.8,22.0 L454.4,22.0 L457.9,22.0 L461.4,22.0 L465.0,22.0 L468.5,22.0 L472.1,22.0 L475.6,22.0 L479.1,22.0 L482.7,22.0 L486.2,22.0 L489.7,22.0 L493.3,22.0 L496.8,22.0 L500.4,22.0 L503.9,22.0 L507.4,22.0 L511.0,22.0 L514.5,22.0 L518.1,22.0 L521.6,22.0 L525.1,22.0 L528.7,22.0 L532.2,22.0 L535.7,22.0 L539.3,22.0 L542.8,22.0 L546.4,22.0 L549.9,22.0 L553.4,22.0 L557.0,22.0 L560.5,22.0 L564.0,22.0 L567.6,22.0 L571.1,22.0 L574.7,22.0 L578.2,22.0 L581.7,22.0 L585.3,22.0 L588.8,22.0 L592.3,22.0 L595.9,22.0 L599.4,22.0 L603.0,22.0 L606.5,22.0 L610.0,22.0 L613.6,22.0 L617.1,22.0 L620.6,22.0 L624.2,22.0 L627.7,22.0 L631.3,22.0 L634.8,22.0 L638.3,22.0 L641.9,22.0 L645.4,22.0 L648.9,22.0 L652.5,22.0 L656.0,22.0 L659.6,22.0 L663.1,22.0 L666.6,22.0 L670.2,22.0 L673.7,22.0 L677.2,22.0 L680.8,22.0 L684.3,22.0 L687.9,22.0 L691.4,22.0 L694.9,22.0 L698.5,22.0 L702.0,22.0 L705.5,22.0 L709.1,22.0 L712.6,22.0 L716.2,22.0 L719.7,22.0 L723.2,22.0 L726.8,22.0 L730.3,22.0 L733.8,22.0 L737.4,22.0 L740.9,22.0 L744.5,22.0 L748.0,22.0" fill="none" stroke="#ffa657" stroke-width="1.4" stroke-dasharray="2,2"/>
<rect x="820.2" y="24" width="10" height="3" fill="#ffa657"/><text x="833.2" y="28" fill="#ffa657">hand target (sim)</text>
<path d="M44.0,164.0 L47.5,164.0 L51.1,164.0 L54.6,164.0 L58.2,164.0 L61.7,164.0 L65.2,164.0 L68.8,164.0 L72.3,164.0 L75.8,164.0 L79.4,164.0 L82.9,164.0 L86.5,164.0 L90.0,164.0 L93.5,164.0 L97.1,164.0 L100.6,164.0 L104.1,164.0 L107.7,164.0 L111.2,164.0 L114.8,164.0 L118.3,164.0 L121.8,164.0 L125.4,164.0 L128.9,164.0 L132.4,164.0 L136.0,164.0 L139.5,164.0 L143.1,157.3 L146.6,150.7 L150.1,144.3 L153.7,138.1 L157.2,131.9 L160.7,126.0 L164.3,120.2 L167.8,114.5 L171.4,109.0 L174.9,103.6 L178.4,98.4 L182.0,93.3 L185.5,88.4 L189.0,83.6 L192.6,79.0 L196.1,74.5 L199.7,70.2 L203.2,66.0 L206.7,62.0 L210.3,58.1 L213.8,54.3 L217.3,50.8 L220.9,47.3 L224.4,44.0 L228.0,40.9 L231.5,37.9 L235.0,35.1 L238.6,32.4 L242.1,29.8 L245.6,27.4 L249.2,25.2 L252.7,23.1 L256.3,22.0 L259.8,22.0 L263.3,22.0 L266.9,22.0 L270.4,22.0 L273.9,22.0 L277.5,22.0 L281.0,22.0 L284.6,22.0 L288.1,22.0 L291.6,22.0 L295.2,22.0 L298.7,22.0 L302.3,22.0 L305.8,22.0 L309.3,22.0 L312.9,22.0 L316.4,22.0 L319.9,22.0 L323.5,22.0 L327.0,22.0 L330.6,22.0 L334.1,22.0 L337.6,22.0 L341.2,22.0 L344.7,22.0 L348.2,22.0 L351.8,22.0 L355.3,22.0 L358.9,22.0 L362.4,22.0 L365.9,22.0 L369.5,22.0 L373.0,22.0 L376.5,22.0 L380.1,22.0 L383.6,22.0 L387.2,22.0 L390.7,22.0 L394.2,22.0 L397.8,22.0 L401.3,22.0 L404.8,22.0 L408.4,22.0 L411.9,22.0 L415.5,22.0 L419.0,22.0 L422.5,22.0 L426.1,22.0 L429.6,22.0 L433.1,22.0 L436.7,22.0 L440.2,22.0 L443.8,22.0 L447.3,22.0 L450.8,22.0 L454.4,22.0 L457.9,22.0 L461.4,22.0 L465.0,22.0 L468.5,22.0 L472.1,22.0 L475.6,22.0 L479.1,22.0 L482.7,22.0 L486.2,22.0 L489.7,22.0 L493.3,22.0 L496.8,22.0 L500.4,22.0 L503.9,22.0 L507.4,22.0 L511.0,22.0 L514.5,22.0 L518.1,22.0 L521.6,22.0 L525.1,22.0 L528.7,22.0 L532.2,22.0 L535.7,22.0 L539.3,22.0 L542.8,22.0 L546.4,22.0 L549.9,22.0 L553.4,22.0 L557.0,22.0 L560.5,22.0 L564.0,22.0 L567.6,22.0 L571.1,22.0 L574.7,22.0 L578.2,22.0 L581.7,22.0 L585.3,22.0 L588.8,22.0 L592.3,22.0 L595.9,22.0 L599.4,22.0 L603.0,22.0 L606.5,22.0 L610.0,22.0 L613.6,22.0 L617.1,22.0 L620.6,22.0 L624.2,22.0 L627.7,22.0 L631.3,29.5 L634.8,37.5 L638.3,45.6 L641.9,53.8 L645.4,62.2 L648.9,70.7 L652.5,79.4 L656.0,88.3 L659.6,97.2 L663.1,106.4 L666.6,115.7 L670.2,125.1 L673.7,134.7 L677.2,144.4 L680.8,154.3 L684.3,164.0 L687.9,158.5 L691.4,153.1 L694.9,147.9 L698.5,142.8 L702.0,137.9 L705.5,133.1 L709.1,128.5 L712.6,124.0 L716.2,119.7 L719.7,115.5 L723.2,111.5 L726.8,107.6 L730.3,103.9 L733.8,100.3 L737.4,96.9 L740.9,93.6 L744.5,90.5 L748.0,87.5" fill="none" stroke="#e8e8e8" stroke-width="1.4" stroke-dasharray="1,3"/>
<rect x="948.6" y="24" width="10" height="3" fill="#e8e8e8"/><text x="961.6" y="28" fill="#e8e8e8">ball</text>
</svg></g><g transform="translate(0,190)"><svg xmlns="http://www.w3.org/2000/svg" width="760" height="190" style="background:#0f1216;font-family:Menlo,monospace;font-size:10px">
<text x="44" y="13" fill="#ffdc78" font-size="11">42 S4 K2 high tip-up (POWER 28 m/s under the bar) (Courtois) — LATERAL travel from the start root</text>
<line x1="277.5" y1="22" x2="277.5" y2="164" stroke="#3a4a5a" stroke-dasharray="3,3"/><text x="279.5" y="161" fill="#6f8aa5" font-size="8">FOLLOW</text>
<line x1="305.8" y1="22" x2="305.8" y2="164" stroke="#3a4a5a" stroke-dasharray="3,3"/><text x="307.8" y="161" fill="#6f8aa5" font-size="8">DESCENT</text>
<line x1="362.4" y1="22" x2="362.4" y2="164" stroke="#3a4a5a" stroke-dasharray="3,3"/><text x="364.4" y="161" fill="#6f8aa5" font-size="8">IMPACT</text>
<line x1="397.8" y1="22" x2="397.8" y2="164" stroke="#3a4a5a" stroke-dasharray="3,3"/><text x="399.8" y="161" fill="#6f8aa5" font-size="8">ABSORB</text>
<line x1="447.3" y1="22" x2="447.3" y2="164" stroke="#3a4a5a" stroke-dasharray="3,3"/><text x="449.3" y="161" fill="#6f8aa5" font-size="8">SETTLE</text>
<line x1="532.2" y1="22" x2="532.2" y2="164" stroke="#3a4a5a" stroke-dasharray="3,3"/><text x="534.2" y="161" fill="#6f8aa5" font-size="8">BRACE</text>
<line x1="595.9" y1="22" x2="595.9" y2="164" stroke="#3a4a5a" stroke-dasharray="3,3"/><text x="597.9" y="161" fill="#6f8aa5" font-size="8">PUSH_UP</text>
<line x1="659.6" y1="22" x2="659.6" y2="164" stroke="#3a4a5a" stroke-dasharray="3,3"/><text x="661.6" y="161" fill="#6f8aa5" font-size="8">HALF_KNEEL</text>
<line x1="733.8" y1="22" x2="733.8" y2="164" stroke="#3a4a5a" stroke-dasharray="3,3"/><text x="735.8" y="161" fill="#6f8aa5" font-size="8">CROUCH</text>
<line x1="178.4" y1="22" x2="178.4" y2="164" stroke="#5a6a3a"/><text x="180.4" y="31" fill="#5a6a3a" font-size="8" transform="rotate(90 180.4,31)">LOAD</text>
<line x1="182.0" y1="22" x2="182.0" y2="164" stroke="#5a6a3a"/><text x="184.0" y="31" fill="#5a6a3a" font-size="8" transform="rotate(90 184.0,31)">PLANT</text>
<line x1="192.6" y1="22" x2="192.6" y2="164" stroke="#5a6a3a"/><text x="194.6" y="31" fill="#5a6a3a" font-size="8" transform="rotate(90 194.6,31)">PUSH_MID</text>
<line x1="199.7" y1="22" x2="199.7" y2="164" stroke="#5a6a3a"/><text x="201.7" y="31" fill="#5a6a3a" font-size="8" transform="rotate(90 201.7,31)">PUSH_END</text>
<line x1="206.7" y1="22" x2="206.7" y2="164" stroke="#5a6a3a"/><text x="208.7" y="31" fill="#5a6a3a" font-size="8" transform="rotate(90 208.7,31)">TOE_OFF</text>
<line x1="220.9" y1="22" x2="220.9" y2="164" stroke="#5a6a3a"/><text x="222.9" y="31" fill="#5a6a3a" font-size="8" transform="rotate(90 222.9,31)">EARLY_FLIGHT</text>
<line x1="245.6" y1="22" x2="245.6" y2="164" stroke="#5a6a3a"/><text x="247.6" y="31" fill="#5a6a3a" font-size="8" transform="rotate(90 247.6,31)">MID_FLIGHT</text>
<line x1="263.3" y1="22" x2="263.3" y2="164" stroke="#ff5252"/><text x="265.3" y="31" fill="#ff5252" font-size="8" transform="rotate(90 265.3,31)">CONTACT</text>
<line x1="266.9" y1="22" x2="266.9" y2="164" stroke="#5a6a3a"/><text x="268.9" y="31" fill="#5a6a3a" font-size="8" transform="rotate(90 268.9,31)">FULL_EXTENSION</text>
<line x1="44" y1="164.0" x2="748" y2="164.0" stroke="#222a33"/><text x="2" y="167.0" fill="#8a97a6">0.00</text>
<line x1="44" y1="128.5" x2="748" y2="128.5" stroke="#222a33"/><text x="2" y="131.5" fill="#8a97a6">0.75</text>
<line x1="44" y1="93.0" x2="748" y2="93.0" stroke="#222a33"/><text x="2" y="96.0" fill="#8a97a6">1.50</text>
<line x1="44" y1="57.5" x2="748" y2="57.5" stroke="#222a33"/><text x="2" y="60.5" fill="#8a97a6">2.25</text>
<line x1="44" y1="22.0" x2="748" y2="22.0" stroke="#222a33"/><text x="2" y="25.0" fill="#8a97a6">3.00</text>
<text x="38.0" y="182" fill="#8a97a6">0</text>
<text x="108.8" y="182" fill="#8a97a6">20</text>
<text x="179.5" y="182" fill="#8a97a6">40</text>
<text x="250.3" y="182" fill="#8a97a6">60</text>
<text x="321.0" y="182" fill="#8a97a6">80</text>
<text x="391.8" y="182" fill="#8a97a6">100</text>
<text x="462.5" y="182" fill="#8a97a6">120</text>
<text x="533.3" y="182" fill="#8a97a6">140</text>
<text x="604.0" y="182" fill="#8a97a6">160</text>
<text x="674.8" y="182" fill="#8a97a6">180</text>
<text x="688" y="182" fill="#8a97a6">tick (60 Hz)</text><text x="2" y="18" fill="#8a97a6">lateral [m]</text>
<path d="M44.0,164.0 L47.5,164.0 L51.1,164.0 L54.6,164.0 L58.2,164.0 L61.7,164.0 L65.2,164.0 L68.8,164.0 L72.3,164.0 L75.8,164.0 L79.4,164.0 L82.9,164.0 L86.5,164.0 L90.0,164.0 L93.5,164.0 L97.1,164.0 L100.6,164.0 L104.1,164.0 L107.7,164.0 L111.2,164.0 L114.8,164.0 L118.3,164.0 L121.8,164.0 L125.4,164.0 L128.9,164.0 L132.4,164.0 L136.0,164.0 L139.5,164.0 L143.1,164.0 L146.6,164.0 L150.1,164.0 L153.7,164.0 L157.2,164.0 L160.7,164.0 L164.3,164.0 L167.8,164.0 L171.4,164.0 L174.9,164.0 L178.4,164.0 L182.0,163.8 L185.5,163.4 L189.0,162.8 L192.6,162.1 L196.1,161.2 L199.7,160.2 L203.2,159.1 L206.7,157.9 L210.3,156.7 L213.8,155.3 L217.3,153.9 L220.9,152.5 L224.4,151.1 L228.0,149.6 L231.5,148.2 L235.0,146.8 L238.6,145.4 L242.1,144.1 L245.6,142.8 L249.2,141.7 L252.7,140.6 L256.3,139.7 L259.8,138.8 L263.3,138.2 L266.9,137.7 L270.4,137.3 L273.9,137.2 L277.5,137.2 L281.0,137.2 L284.6,137.2 L288.1,137.2 L291.6,137.2 L295.2,137.2 L298.7,137.2 L302.3,137.2 L305.8,137.2 L309.3,137.2 L312.9,137.2 L316.4,137.2 L319.9,137.2 L323.5,137.2 L327.0,137.2 L330.6,137.2 L334.1,137.2 L337.6,137.2 L341.2,137.2 L344.7,137.2 L348.2,137.2 L351.8,137.2 L355.3,137.2 L358.9,137.2 L362.4,137.2 L365.9,137.2 L369.5,137.2 L373.0,137.2 L376.5,137.2 L380.1,137.2 L383.6,137.2 L387.2,137.2 L390.7,137.2 L394.2,137.2 L397.8,137.2 L401.3,137.2 L404.8,137.2 L408.4,137.2 L411.9,137.2 L415.5,137.2 L419.0,137.2 L422.5,137.2 L426.1,137.2 L429.6,137.2 L433.1,137.2 L436.7,137.2 L440.2,137.2 L443.8,137.2 L447.3,137.2 L450.8,137.2 L454.4,137.2 L457.9,137.2 L461.4,137.2 L465.0,137.2 L468.5,137.2 L472.1,137.2 L475.6,137.2 L479.1,137.2 L482.7,137.2 L486.2,137.2 L489.7,137.2 L493.3,137.2 L496.8,137.2 L500.4,137.2 L503.9,137.2 L507.4,137.2 L511.0,137.2 L514.5,137.2 L518.1,137.2 L521.6,137.2 L525.1,137.2 L528.7,137.2 L532.2,137.2 L535.7,137.2 L539.3,137.2 L542.8,137.2 L546.4,137.2 L549.9,137.2 L553.4,137.2 L557.0,137.2 L560.5,137.2 L564.0,137.2 L567.6,137.2 L571.1,137.2 L574.7,137.2 L578.2,137.2 L581.7,137.2 L585.3,137.2 L588.8,137.2 L592.3,137.2 L595.9,137.2 L599.4,137.2 L603.0,137.2 L606.5,137.2 L610.0,137.2 L613.6,137.2 L617.1,137.2 L620.6,137.2 L624.2,137.2 L627.7,137.2 L631.3,137.2 L634.8,137.2 L638.3,137.2 L641.9,137.2 L645.4,137.2 L648.9,137.2 L652.5,137.2 L656.0,137.2 L659.6,137.2 L663.1,137.2 L666.6,137.2 L670.2,137.2 L673.7,137.2 L677.2,137.2 L680.8,137.2 L684.3,137.2 L687.9,137.2 L691.4,137.2 L694.9,137.2 L698.5,137.2 L702.0,137.2 L705.5,137.2 L709.1,137.2 L712.6,137.2 L716.2,137.2 L719.7,137.2 L723.2,137.2 L726.8,137.2 L730.3,137.2 L733.8,137.2 L737.4,137.2 L740.9,137.2 L744.5,137.2 L748.0,137.2" fill="none" stroke="#8ab4f8" stroke-width="1.4"/>
<rect x="48" y="24" width="10" height="3" fill="#8ab4f8"/><text x="61" y="28" fill="#8ab4f8">simulation root (authoritative)</text>
<path d="M44.0,164.0 L47.5,164.0 L51.1,164.0 L54.6,163.9 L58.2,163.9 L61.7,163.9 L65.2,163.9 L68.8,163.8 L72.3,163.8 L75.8,163.7 L79.4,163.7 L82.9,163.6 L86.5,163.6 L90.0,163.5 L93.5,163.5 L97.1,163.4 L100.6,163.4 L104.1,163.3 L107.7,163.3 L111.2,163.2 L114.8,163.2 L118.3,163.2 L121.8,163.1 L125.4,163.1 L128.9,163.1 L132.4,163.1 L136.0,163.1 L139.5,163.1 L143.1,163.1 L146.6,163.1 L150.1,163.0 L153.7,162.6 L157.2,161.6 L160.7,160.3 L164.3,159.2 L167.8,158.4 L171.4,157.7 L174.9,157.3 L178.4,157.0 L182.0,156.7 L185.5,156.3 L189.0,155.9 L192.6,155.7 L196.1,155.5 L199.7,155.4 L203.2,155.4 L206.7,155.4 L210.3,155.5 L213.8,155.6 L217.3,155.8 L220.9,156.0 L224.4,156.2 L228.0,156.4 L231.5,156.6 L235.0,156.8 L238.6,157.0 L242.1,157.1 L245.6,157.1 L249.2,157.0 L252.7,156.8 L256.3,156.6 L259.8,156.1 L263.3,155.6 L266.9,154.8 L270.4,153.9 L273.9,152.8 L277.5,151.6 L281.0,150.4 L284.6,149.1 L288.1,147.9 L291.6,146.6 L295.2,145.4 L298.7,144.2 L302.3,142.9 L305.8,141.7 L309.3,140.4 L312.9,139.2 L316.4,138.0 L319.9,136.7 L323.5,135.5 L327.0,134.2 L330.6,133.0 L334.1,131.8 L337.6,130.5 L341.2,129.3 L344.7,128.0 L348.2,126.8 L351.8,125.6 L355.3,124.3 L358.9,123.1 L362.4,121.8 L365.9,120.6 L369.5,119.4 L373.0,118.2 L376.5,117.1 L380.1,115.9 L383.6,114.8 L387.2,113.7 L390.7,112.6 L394.2,111.5 L397.8,110.5 L401.3,109.5 L404.8,108.5 L408.4,107.6 L411.9,106.7 L415.5,105.8 L419.0,105.0 L422.5,104.3 L426.1,103.5 L429.6,102.8 L433.1,102.2 L436.7,101.6 L440.2,101.0 L443.8,100.5 L447.3,100.0 L450.8,99.5 L454.4,99.1 L457.9,98.6 L461.4,98.2 L465.0,97.8 L468.5,97.5 L472.1,97.1 L475.6,96.8 L479.1,96.5 L482.7,96.2 L486.2,95.9 L489.7,95.7 L493.3,95.5 L496.8,95.2 L500.4,95.1 L503.9,94.9 L507.4,94.7 L511.0,94.6 L514.5,94.5 L518.1,94.4 L521.6,94.4 L525.1,94.3 L528.7,94.3 L532.2,94.3 L535.7,94.3 L539.3,94.3 L542.8,94.3 L546.4,94.3 L549.9,94.3 L553.4,94.3 L557.0,94.3 L560.5,94.3 L564.0,94.3 L567.6,94.3 L571.1,94.3 L574.7,94.3 L578.2,94.3 L581.7,94.3 L585.3,94.3 L588.8,94.3 L592.3,94.3 L595.9,94.3 L599.4,94.3 L603.0,94.3 L606.5,94.3 L610.0,94.3 L613.6,94.3 L617.1,94.3 L620.6,94.3 L624.2,94.3 L627.7,94.3 L631.3,94.3 L634.8,94.3 L638.3,94.3 L641.9,94.3 L645.4,94.3 L648.9,94.3 L652.5,94.3 L656.0,94.3 L659.6,94.3 L663.1,94.3 L666.6,94.3 L670.2,94.3 L673.7,94.3 L677.2,94.3 L680.8,94.3 L684.3,94.3 L687.9,94.3 L691.4,94.3 L694.9,94.3 L698.5,94.3 L702.0,94.3 L705.5,94.3 L709.1,94.3 L712.6,94.3 L716.2,94.3 L719.7,94.3 L723.2,94.3 L726.8,94.3 L730.3,94.3 L733.8,94.3 L737.4,94.3 L740.9,94.3 L744.5,94.3 L748.0,94.3" fill="none" stroke="#c58af9" stroke-width="1.4"/>
<rect x="263.20000000000005" y="24" width="10" height="3" fill="#c58af9"/><text x="276.20000000000005" y="28" fill="#c58af9">presentation root deviation |dm|</text>
<path d="M178.4,157.0 L182.0,156.4 L185.5,155.7 L189.0,154.7 L192.6,153.7 L196.1,152.2 L199.7,150.3 L203.2,148.2 L206.7,145.6 L210.3,143.4 L213.8,140.9 L217.3,138.3 L220.9,135.5 L224.4,132.8 L228.0,130.2 L231.5,128.0 L235.0,126.0 L238.6,124.2 L242.1,122.5 L245.6,121.0 L249.2,119.7 L252.7,118.4 L256.3,117.2 L259.8,116.3 L263.3,115.5 L266.9,114.9 L270.4,114.6 L273.9,114.4" fill="none" stroke="#f28b82" stroke-width="1.4"/>
<rect x="484.6" y="24" width="10" height="3" fill="#f28b82"/><text x="497.6" y="28" fill="#f28b82">authored pelvis</text>
<path d="M178.4,157.0 L182.0,156.4 L185.5,155.7 L189.0,154.7 L192.6,153.7 L196.1,152.2 L199.7,150.3 L203.2,148.2 L206.7,145.6 L210.3,143.3 L213.8,140.7 L217.3,138.0 L220.9,135.3 L224.4,132.8 L228.0,130.7 L231.5,129.1 L235.0,127.9 L238.6,127.0 L242.1,126.3 L245.6,125.9 L249.2,125.6 L252.7,125.5 L256.3,125.5 L259.8,125.5 L263.3,125.6 L266.9,125.7 L270.4,125.8 L273.9,125.8" fill="none" stroke="#fdd663" stroke-width="1.4"/>
<rect x="600.6" y="24" width="10" height="3" fill="#fdd663"/><text x="613.6" y="28" fill="#fdd663">redirected pelvis</text>
<path d="M44.0,164.0 L47.5,164.0 L51.1,164.0 L54.6,163.9 L58.2,163.9 L61.7,163.9 L65.2,163.9 L68.8,163.8 L72.3,163.8 L75.8,163.7 L79.4,163.7 L82.9,163.6 L86.5,163.6 L90.0,163.5 L93.5,163.5 L97.1,163.4 L100.6,163.4 L104.1,163.3 L107.7,163.3 L111.2,163.2 L114.8,163.2 L118.3,163.2 L121.8,163.1 L125.4,163.1 L128.9,163.1 L132.4,163.1 L136.0,163.1 L139.5,163.1 L143.1,163.1 L146.6,163.1 L150.1,163.0 L153.7,162.6 L157.2,161.6 L160.7,160.3 L164.3,159.2 L167.8,158.4 L171.4,157.7 L174.9,157.3 L178.4,157.0 L182.0,156.4 L185.5,155.7 L189.0,154.7 L192.6,153.8 L196.1,152.8 L199.7,151.7 L203.2,150.6 L206.7,149.4 L210.3,148.2 L213.8,147.0 L217.3,145.8 L220.9,144.5 L224.4,143.3 L228.0,142.1 L231.5,140.9 L235.0,139.6 L238.6,138.4 L242.1,137.2 L245.6,135.9 L249.2,134.7 L252.7,133.5 L256.3,132.2 L259.8,131.0 L263.3,129.8 L266.9,128.5 L270.4,127.3 L273.9,126.0 L277.5,124.8 L281.0,123.6 L284.6,122.3 L288.1,121.1 L291.6,119.9 L295.2,118.6 L298.7,117.4 L302.3,116.1 L305.8,114.9 L309.3,113.7 L312.9,112.4 L316.4,111.2 L319.9,109.9 L323.5,108.7 L327.0,107.5 L330.6,106.2 L334.1,105.0 L337.6,103.7 L341.2,102.5 L344.7,101.3 L348.2,100.0 L351.8,98.8 L355.3,97.5 L358.9,96.3 L362.4,95.1 L365.9,93.8 L369.5,92.6 L373.0,91.5 L376.5,90.3 L380.1,89.1 L383.6,88.0 L387.2,86.9 L390.7,85.8 L394.2,84.8 L397.8,83.7 L401.3,82.7 L404.8,81.7 L408.4,80.8 L411.9,79.9 L415.5,79.1 L419.0,78.3 L422.5,77.5 L426.1,76.8 L429.6,76.1 L433.1,75.4 L436.7,74.8 L440.2,74.2 L443.8,73.7 L447.3,73.2 L450.8,72.8 L454.4,72.3 L457.9,71.9 L461.4,71.5 L465.0,71.1 L468.5,70.7 L472.1,70.4 L475.6,70.0 L479.1,69.7 L482.7,69.4 L486.2,69.2 L489.7,68.9 L493.3,68.7 L496.8,68.5 L500.4,68.3 L503.9,68.1 L507.4,68.0 L511.0,67.9 L514.5,67.8 L518.1,67.7 L521.6,67.6 L525.1,67.6 L528.7,67.5 L532.2,67.5 L535.7,67.5 L539.3,67.5 L542.8,67.5 L546.4,67.5 L549.9,67.5 L553.4,67.5 L557.0,67.5 L560.5,67.5 L564.0,67.5 L567.6,67.5 L571.1,67.5 L574.7,67.5 L578.2,67.5 L581.7,67.5 L585.3,67.5 L588.8,67.5 L592.3,67.5 L595.9,67.5 L599.4,67.5 L603.0,67.5 L606.5,67.5 L610.0,67.5 L613.6,67.5 L617.1,67.5 L620.6,67.5 L624.2,67.5 L627.7,67.5 L631.3,67.5 L634.8,67.5 L638.3,67.5 L641.9,67.5 L645.4,67.5 L648.9,67.5 L652.5,67.5 L656.0,67.5 L659.6,67.5 L663.1,67.5 L666.6,67.5 L670.2,67.5 L673.7,67.5 L677.2,67.5 L680.8,67.5 L684.3,67.5 L687.9,67.5 L691.4,67.5 L694.9,67.5 L698.5,67.5 L702.0,67.5 L705.5,67.5 L709.1,67.5 L712.6,67.5 L716.2,67.5 L719.7,67.5 L723.2,67.5 L726.8,67.5 L730.3,67.5 L733.8,67.5 L737.4,67.5 L740.9,67.5 L744.5,67.5 L748.0,67.5" fill="none" stroke="#81c995" stroke-width="1.4"/>
<rect x="729.0" y="24" width="10" height="3" fill="#81c995"/><text x="742.0" y="28" fill="#81c995">planned pelvis</text>
<path d="M44.0,164.0 L47.5,164.0 L51.1,164.0 L54.6,163.9 L58.2,163.9 L61.7,163.9 L65.2,163.9 L68.8,163.8 L72.3,163.8 L75.8,163.7 L79.4,163.7 L82.9,163.6 L86.5,163.6 L90.0,163.5 L93.5,163.5 L97.1,163.4 L100.6,163.4 L104.1,163.3 L107.7,163.3 L111.2,163.2 L114.8,163.2 L118.3,163.2 L121.8,163.1 L125.4,163.1 L128.9,163.1 L132.4,163.1 L136.0,163.1 L139.5,163.1 L143.1,163.1 L146.6,163.1 L150.1,163.0 L153.7,162.6 L157.2,161.6 L160.7,160.3 L164.3,159.2 L167.8,158.4 L171.4,157.7 L174.9,157.3 L178.4,157.0 L182.0,156.4 L185.5,155.7 L189.0,154.7 L192.6,153.8 L196.1,152.8 L199.7,151.7 L203.2,150.6 L206.7,149.4 L210.3,148.2 L213.8,147.0 L217.3,145.8 L220.9,144.5 L224.4,143.3 L228.0,142.1 L231.5,140.9 L235.0,139.6 L238.6,138.4 L242.1,137.2 L245.6,135.9 L249.2,134.7 L252.7,133.5 L256.3,132.2 L259.8,131.0 L263.3,129.8 L266.9,128.5 L270.4,127.3 L273.9,126.0 L277.5,124.8 L281.0,123.6 L284.6,122.3 L288.1,121.1 L291.6,119.9 L295.2,118.6 L298.7,117.4 L302.3,116.1 L305.8,114.9 L309.3,113.7 L312.9,112.4 L316.4,111.2 L319.9,109.9 L323.5,108.7 L327.0,107.5 L330.6,106.2 L334.1,105.0 L337.6,103.7 L341.2,102.5 L344.7,101.3 L348.2,100.0 L351.8,98.8 L355.3,97.5 L358.9,96.3 L362.4,95.1 L365.9,93.8 L369.5,92.6 L373.0,91.5 L376.5,90.3 L380.1,89.1 L383.6,88.0 L387.2,86.9 L390.7,85.8 L394.2,84.8 L397.8,83.7 L401.3,82.7 L404.8,81.7 L408.4,80.8 L411.9,79.9 L415.5,79.1 L419.0,78.3 L422.5,77.5 L426.1,76.8 L429.6,76.1 L433.1,75.4 L436.7,74.8 L440.2,74.2 L443.8,73.7 L447.3,73.2 L450.8,72.8 L454.4,72.3 L457.9,71.9 L461.4,71.5 L465.0,71.1 L468.5,70.7 L472.1,70.4 L475.6,70.0 L479.1,69.7 L482.7,69.4 L486.2,69.2 L489.7,68.9 L493.3,68.7 L496.8,68.5 L500.4,68.3 L503.9,68.1 L507.4,68.0 L511.0,67.9 L514.5,67.8 L518.1,67.7 L521.6,67.6 L525.1,67.6 L528.7,67.5 L532.2,67.5 L535.7,67.5 L539.3,67.5 L542.8,67.5 L546.4,67.5 L549.9,67.5 L553.4,67.5 L557.0,67.5 L560.5,67.5 L564.0,67.5 L567.6,67.5 L571.1,67.5 L574.7,67.5 L578.2,67.5 L581.7,67.5 L585.3,67.5 L588.8,67.5 L592.3,67.5 L595.9,67.5 L599.4,67.5 L603.0,67.5 L606.5,67.5 L610.0,67.5 L613.6,67.5 L617.1,67.5 L620.6,67.5 L624.2,67.5 L627.7,67.5 L631.3,67.5 L634.8,67.5 L638.3,67.5 L641.9,67.5 L645.4,67.5 L648.9,67.5 L652.5,67.5 L656.0,67.5 L659.6,67.5 L663.1,67.5 L666.6,67.5 L670.2,67.5 L673.7,67.5 L677.2,67.5 L680.8,67.5 L684.3,67.5 L687.9,67.5 L691.4,67.5 L694.9,67.5 L698.5,67.5 L702.0,67.5 L705.5,67.5 L709.1,67.5 L712.6,67.5 L716.2,67.5 L719.7,67.5 L723.2,67.5 L726.8,67.5 L730.3,67.5 L733.8,67.5 L737.4,67.5 L740.9,67.5 L744.5,67.5 L748.0,67.5" fill="none" stroke="#ffffff" stroke-width="1.4"/>
<rect x="838.8" y="24" width="10" height="3" fill="#ffffff"/><text x="851.8" y="28" fill="#ffffff">final pelvis</text>
<path d="M44.0,129.5 L47.5,129.5 L51.1,129.4 L54.6,129.4 L58.2,129.3 L61.7,129.2 L65.2,129.1 L68.8,129.0 L72.3,128.8 L75.8,128.7 L79.4,128.6 L82.9,128.4 L86.5,128.3 L90.0,128.2 L93.5,128.1 L97.1,127.9 L100.6,127.8 L104.1,127.7 L107.7,127.6 L111.2,127.5 L114.8,127.4 L118.3,127.3 L121.8,127.2 L125.4,127.2 L128.9,127.1 L132.4,127.1 L136.0,127.1 L139.5,127.1 L143.1,127.1 L146.6,126.8 L150.1,126.5 L153.7,126.2 L157.2,126.1 L160.7,126.5 L164.3,127.1 L167.8,127.9 L171.4,128.6 L174.9,128.9 L178.4,128.8 L182.0,127.9 L185.5,125.1 L189.0,118.0 L192.6,107.9 L196.1,99.5 L199.7,93.8 L203.2,90.7 L206.7,89.7 L210.3,91.9 L213.8,94.5 L217.3,97.4 L220.9,100.1 L224.4,102.6 L228.0,104.5 L231.5,105.9 L235.0,106.7 L238.6,107.1 L242.1,107.1 L245.6,106.6 L249.2,105.5 L252.7,105.5 L256.3,105.2 L259.8,104.9 L263.3,106.7 L266.9,105.6 L270.4,104.8 L273.9,104.5 L277.5,103.9 L281.0,102.9 L284.6,101.8 L288.1,100.5 L291.6,99.0 L295.2,97.3 L298.7,95.3 L302.3,93.2 L305.8,91.4 L309.3,89.0 L312.9,86.1 L316.4,82.8 L319.9,79.2 L323.5,75.3 L327.0,71.3 L330.6,67.2 L334.1,63.1 L337.6,59.2 L341.2,55.6 L344.7,52.8 L348.2,50.8 L351.8,50.8 L355.3,51.1 L358.9,51.1 L362.4,50.7 L365.9,49.3 L369.5,47.8 L373.0,46.0 L376.5,44.3 L380.1,42.8 L383.6,41.5 L387.2,40.5 L390.7,39.5 L394.2,38.5 L397.8,37.2 L401.3,35.9 L404.8,34.8 L408.4,34.8 L411.9,36.6 L415.5,39.9 L419.0,43.7 L422.5,47.3 L426.1,50.2 L429.6,52.2 L433.1,53.1 L436.7,53.4 L440.2,53.1 L443.8,52.5 L447.3,51.9 L450.8,51.5 L454.4,51.0 L457.9,50.6 L461.4,50.2 L465.0,49.8 L468.5,49.4 L472.1,49.1 L475.6,48.8 L479.1,48.5 L482.7,48.2 L486.2,47.9 L489.7,47.7 L493.3,47.5 L496.8,47.3 L500.4,47.1 L503.9,46.9 L507.4,46.8 L511.0,46.6 L514.5,46.5 L518.1,46.4 L521.6,46.4 L525.1,46.3 L528.7,46.3 L532.2,46.3 L535.7,46.3 L539.3,46.3 L542.8,46.4 L546.4,46.4 L549.9,46.5 L553.4,46.6 L557.0,46.7 L560.5,46.7 L564.0,46.8 L567.6,46.8 L571.1,46.7 L574.7,46.7 L578.2,46.6 L581.7,46.6 L585.3,46.5 L588.8,46.5 L592.3,46.5 L595.9,46.5 L599.4,46.5 L603.0,46.5 L606.5,46.6 L610.0,46.7 L613.6,46.8 L617.1,47.1 L620.6,47.5 L624.2,48.0 L627.7,48.6 L631.3,49.1 L634.8,49.4 L638.3,49.5 L641.9,49.5 L645.4,49.4 L648.9,49.3 L652.5,49.2 L656.0,49.1 L659.6,49.1 L663.1,49.0 L666.6,48.8 L670.2,48.4 L673.7,47.7 L677.2,46.2 L680.8,46.1 L684.3,46.0 L687.9,45.6 L691.4,44.8 L694.9,43.7 L698.5,42.2 L702.0,40.5 L705.5,38.5 L709.1,36.6 L712.6,35.1 L716.2,33.6 L719.7,32.4 L723.2,31.8 L726.8,31.6 L730.3,31.6 L733.8,31.6 L737.4,31.7 L740.9,31.8 L744.5,32.0 L748.0,32.2" fill="none" stroke="#ff8bcb" stroke-width="1.4" stroke-dasharray="4,2"/>
<rect x="936.1999999999999" y="24" width="10" height="3" fill="#ff8bcb"/><text x="949.1999999999999" y="28" fill="#ff8bcb">reach hand tip</text>
<path d="M44.0,164.0 L47.5,164.0 L51.1,164.0 L54.6,164.0 L58.2,164.0 L61.7,164.0 L65.2,164.0 L68.8,164.0 L72.3,164.0 L75.8,164.0 L79.4,164.0 L82.9,164.0 L86.5,164.0 L90.0,164.0 L93.5,164.0 L97.1,164.0 L100.6,164.0 L104.1,164.0 L107.7,164.0 L111.2,164.0 L114.8,164.0 L118.3,164.0 L121.8,164.0 L125.4,164.0 L128.9,164.0 L132.4,164.0 L136.0,164.0 L139.5,164.0 L143.1,164.0 L146.6,164.0 L150.1,164.0 L153.7,164.0 L157.2,164.0 L160.7,164.0 L164.3,164.0 L167.8,164.0 L171.4,164.0 L174.9,164.0 L178.4,164.0 L182.0,163.5 L185.5,162.6 L189.0,161.3 L192.6,159.7 L196.1,157.8 L199.7,155.6 L203.2,153.2 L206.7,150.5 L210.3,147.7 L213.8,144.7 L217.3,141.6 L220.9,138.5 L224.4,135.2 L228.0,132.0 L231.5,128.8 L235.0,125.7 L238.6,122.6 L242.1,119.7 L245.6,116.9 L249.2,114.3 L252.7,112.0 L256.3,109.9 L259.8,108.1 L263.3,106.6 L266.9,105.5 L270.4,104.8 L273.9,104.5 L277.5,104.5 L281.0,104.5 L284.6,104.5 L288.1,104.5 L291.6,104.5 L295.2,104.5 L298.7,104.5 L302.3,104.5 L305.8,104.5 L309.3,104.5 L312.9,104.5 L316.4,104.5 L319.9,104.5 L323.5,104.5 L327.0,104.5 L330.6,104.5 L334.1,104.5 L337.6,104.5 L341.2,104.5 L344.7,104.5 L348.2,104.5 L351.8,104.5 L355.3,104.5 L358.9,104.5 L362.4,104.5 L365.9,104.5 L369.5,104.5 L373.0,104.5 L376.5,104.5 L380.1,104.5 L383.6,104.5 L387.2,104.5 L390.7,104.5 L394.2,104.5 L397.8,104.5 L401.3,104.5 L404.8,104.5 L408.4,104.5 L411.9,104.5 L415.5,104.5 L419.0,104.5 L422.5,104.5 L426.1,104.5 L429.6,104.5 L433.1,104.5 L436.7,104.5 L440.2,104.5 L443.8,104.5 L447.3,104.5 L450.8,104.5 L454.4,104.5 L457.9,104.5 L461.4,104.5 L465.0,104.5 L468.5,104.5 L472.1,104.5 L475.6,104.5 L479.1,104.5 L482.7,104.5 L486.2,104.5 L489.7,104.5 L493.3,104.5 L496.8,104.5 L500.4,104.5 L503.9,104.5 L507.4,104.5 L511.0,104.5 L514.5,104.5 L518.1,104.5 L521.6,104.5 L525.1,104.5 L528.7,104.5 L532.2,104.5 L535.7,104.5 L539.3,104.5 L542.8,104.5 L546.4,104.5 L549.9,104.5 L553.4,104.5 L557.0,104.5 L560.5,104.5 L564.0,104.5 L567.6,104.5 L571.1,104.5 L574.7,104.5 L578.2,104.5 L581.7,104.5 L585.3,104.5 L588.8,104.5 L592.3,104.5 L595.9,104.5 L599.4,104.5 L603.0,104.5 L606.5,104.5 L610.0,104.5 L613.6,104.5 L617.1,104.5 L620.6,104.5 L624.2,104.5 L627.7,104.5 L631.3,104.5 L634.8,104.5 L638.3,104.5 L641.9,104.5 L645.4,104.5 L648.9,104.5 L652.5,104.5 L656.0,104.5 L659.6,104.5 L663.1,104.5 L666.6,104.5 L670.2,104.5 L673.7,104.5 L677.2,104.5 L680.8,104.5 L684.3,104.5 L687.9,104.5 L691.4,104.5 L694.9,104.5 L698.5,104.5 L702.0,104.5 L705.5,104.5 L709.1,104.5 L712.6,104.5 L716.2,104.5 L719.7,104.5 L723.2,104.5 L726.8,104.5 L730.3,104.5 L733.8,104.5 L737.4,104.5 L740.9,104.5 L744.5,104.5 L748.0,104.5" fill="none" stroke="#ffa657" stroke-width="1.4" stroke-dasharray="2,2"/>
<rect x="1046.0" y="24" width="10" height="3" fill="#ffa657"/><text x="1059.0" y="28" fill="#ffa657">hand target</text>
</svg></g><g transform="translate(0,380)"><svg xmlns="http://www.w3.org/2000/svg" width="760" height="190" style="background:#0f1216;font-family:Menlo,monospace;font-size:10px">
<text x="44" y="13" fill="#ffdc78" font-size="11">42 S4 K2 high tip-up (POWER 28 m/s under the bar) (Courtois) — PELVIS ROLL by layer (deg) and body axis theta</text>
<line x1="277.5" y1="22" x2="277.5" y2="164" stroke="#3a4a5a" stroke-dasharray="3,3"/><text x="279.5" y="161" fill="#6f8aa5" font-size="8">FOLLOW</text>
<line x1="305.8" y1="22" x2="305.8" y2="164" stroke="#3a4a5a" stroke-dasharray="3,3"/><text x="307.8" y="161" fill="#6f8aa5" font-size="8">DESCENT</text>
<line x1="362.4" y1="22" x2="362.4" y2="164" stroke="#3a4a5a" stroke-dasharray="3,3"/><text x="364.4" y="161" fill="#6f8aa5" font-size="8">IMPACT</text>
<line x1="397.8" y1="22" x2="397.8" y2="164" stroke="#3a4a5a" stroke-dasharray="3,3"/><text x="399.8" y="161" fill="#6f8aa5" font-size="8">ABSORB</text>
<line x1="447.3" y1="22" x2="447.3" y2="164" stroke="#3a4a5a" stroke-dasharray="3,3"/><text x="449.3" y="161" fill="#6f8aa5" font-size="8">SETTLE</text>
<line x1="532.2" y1="22" x2="532.2" y2="164" stroke="#3a4a5a" stroke-dasharray="3,3"/><text x="534.2" y="161" fill="#6f8aa5" font-size="8">BRACE</text>
<line x1="595.9" y1="22" x2="595.9" y2="164" stroke="#3a4a5a" stroke-dasharray="3,3"/><text x="597.9" y="161" fill="#6f8aa5" font-size="8">PUSH_UP</text>
<line x1="659.6" y1="22" x2="659.6" y2="164" stroke="#3a4a5a" stroke-dasharray="3,3"/><text x="661.6" y="161" fill="#6f8aa5" font-size="8">HALF_KNEEL</text>
<line x1="733.8" y1="22" x2="733.8" y2="164" stroke="#3a4a5a" stroke-dasharray="3,3"/><text x="735.8" y="161" fill="#6f8aa5" font-size="8">CROUCH</text>
<line x1="178.4" y1="22" x2="178.4" y2="164" stroke="#5a6a3a"/><text x="180.4" y="31" fill="#5a6a3a" font-size="8" transform="rotate(90 180.4,31)">LOAD</text>
<line x1="182.0" y1="22" x2="182.0" y2="164" stroke="#5a6a3a"/><text x="184.0" y="31" fill="#5a6a3a" font-size="8" transform="rotate(90 184.0,31)">PLANT</text>
<line x1="192.6" y1="22" x2="192.6" y2="164" stroke="#5a6a3a"/><text x="194.6" y="31" fill="#5a6a3a" font-size="8" transform="rotate(90 194.6,31)">PUSH_MID</text>
<line x1="199.7" y1="22" x2="199.7" y2="164" stroke="#5a6a3a"/><text x="201.7" y="31" fill="#5a6a3a" font-size="8" transform="rotate(90 201.7,31)">PUSH_END</text>
<line x1="206.7" y1="22" x2="206.7" y2="164" stroke="#5a6a3a"/><text x="208.7" y="31" fill="#5a6a3a" font-size="8" transform="rotate(90 208.7,31)">TOE_OFF</text>
<line x1="220.9" y1="22" x2="220.9" y2="164" stroke="#5a6a3a"/><text x="222.9" y="31" fill="#5a6a3a" font-size="8" transform="rotate(90 222.9,31)">EARLY_FLIGHT</text>
<line x1="245.6" y1="22" x2="245.6" y2="164" stroke="#5a6a3a"/><text x="247.6" y="31" fill="#5a6a3a" font-size="8" transform="rotate(90 247.6,31)">MID_FLIGHT</text>
<line x1="263.3" y1="22" x2="263.3" y2="164" stroke="#ff5252"/><text x="265.3" y="31" fill="#ff5252" font-size="8" transform="rotate(90 265.3,31)">CONTACT</text>
<line x1="266.9" y1="22" x2="266.9" y2="164" stroke="#5a6a3a"/><text x="268.9" y="31" fill="#5a6a3a" font-size="8" transform="rotate(90 268.9,31)">FULL_EXTENSION</text>
<line x1="44" y1="164.0" x2="748" y2="164.0" stroke="#222a33"/><text x="2" y="167.0" fill="#8a97a6">-100.00</text>
<line x1="44" y1="128.5" x2="748" y2="128.5" stroke="#222a33"/><text x="2" y="131.5" fill="#8a97a6">-70.00</text>
<line x1="44" y1="93.0" x2="748" y2="93.0" stroke="#222a33"/><text x="2" y="96.0" fill="#8a97a6">-40.00</text>
<line x1="44" y1="57.5" x2="748" y2="57.5" stroke="#222a33"/><text x="2" y="60.5" fill="#8a97a6">-10.00</text>
<line x1="44" y1="22.0" x2="748" y2="22.0" stroke="#222a33"/><text x="2" y="25.0" fill="#8a97a6">20.00</text>
<text x="38.0" y="182" fill="#8a97a6">0</text>
<text x="108.8" y="182" fill="#8a97a6">20</text>
<text x="179.5" y="182" fill="#8a97a6">40</text>
<text x="250.3" y="182" fill="#8a97a6">60</text>
<text x="321.0" y="182" fill="#8a97a6">80</text>
<text x="391.8" y="182" fill="#8a97a6">100</text>
<text x="462.5" y="182" fill="#8a97a6">120</text>
<text x="533.3" y="182" fill="#8a97a6">140</text>
<text x="604.0" y="182" fill="#8a97a6">160</text>
<text x="674.8" y="182" fill="#8a97a6">180</text>
<text x="688" y="182" fill="#8a97a6">tick (60 Hz)</text><text x="2" y="18" fill="#8a97a6">deg [deg]</text>
<path d="M178.4,72.2 L182.0,73.6 L185.5,75.7 L189.0,79.5 L192.6,84.5 L196.1,90.0 L199.7,96.4 L203.2,102.0 L206.7,106.8 L210.3,108.9 L213.8,111.0 L217.3,113.4 L220.9,115.8 L224.4,118.1 L228.0,120.2 L231.5,121.9 L235.0,123.2 L238.6,124.5 L242.1,125.5 L245.6,126.5 L249.2,127.3 L252.7,128.1 L256.3,128.8 L259.8,129.5 L263.3,130.0 L266.9,130.3 L270.4,130.6 L273.9,130.8" fill="none" stroke="#f28b82" stroke-width="1.4"/>
<rect x="48" y="24" width="10" height="3" fill="#f28b82"/><text x="61" y="28" fill="#f28b82">authored roll</text>
<path d="M178.4,77.2 L182.0,78.3 L185.5,80.0 L189.0,82.7 L192.6,85.8 L196.1,88.3 L199.7,90.4 L203.2,91.1 L206.7,91.1 L210.3,90.5 L213.8,89.8 L217.3,88.9 L220.9,87.7 L224.4,86.4 L228.0,84.9 L231.5,83.5 L235.0,82.0 L238.6,80.7 L242.1,79.3 L245.6,78.0 L249.2,76.7 L252.7,75.6 L256.3,74.6 L259.8,73.6 L263.3,72.8 L266.9,72.2 L270.4,71.8 L273.9,71.5" fill="none" stroke="#fdd663" stroke-width="1.4"/>
<rect x="151.60000000000002" y="24" width="10" height="3" fill="#fdd663"/><text x="164.60000000000002" y="28" fill="#fdd663">redirected roll</text>
<path d="M44.0,45.7 L47.5,45.7 L51.1,45.7 L54.6,45.7 L58.2,45.7 L61.7,45.7 L65.2,45.7 L68.8,45.7 L72.3,45.7 L75.8,45.7 L79.4,45.7 L82.9,45.7 L86.5,45.7 L90.0,45.7 L93.5,45.7 L97.1,45.7 L100.6,45.7 L104.1,45.7 L107.7,45.7 L111.2,45.7 L114.8,45.7 L118.3,45.7 L121.8,45.7 L125.4,45.7 L128.9,45.7 L132.4,45.7 L136.0,45.7 L139.5,45.7 L143.1,45.7 L146.6,46.7 L150.1,48.3 L153.7,50.8 L157.2,54.1 L160.7,58.0 L164.3,61.7 L167.8,65.0 L171.4,68.3 L174.9,70.9 L178.4,77.2 L182.0,78.3 L185.5,80.0 L189.0,82.7 L192.6,85.8 L196.1,88.3 L199.7,90.4 L203.2,91.1 L206.7,91.1 L210.3,90.5 L213.8,89.8 L217.3,88.9 L220.9,87.7 L224.4,86.4 L228.0,84.9 L231.5,83.5 L235.0,82.0 L238.6,80.7 L242.1,79.3 L245.6,78.0 L249.2,76.7 L252.7,75.6 L256.3,74.6 L259.8,73.6 L263.3,72.8 L266.9,72.2 L270.4,71.8 L273.9,71.5 L277.5,71.2 L281.0,70.7 L284.6,70.1 L288.1,69.4 L291.6,68.7 L295.2,68.1 L298.7,67.5 L302.3,67.1 L305.8,66.9 L309.3,67.0 L312.9,67.1 L316.4,67.4 L319.9,67.8 L323.5,68.1 L327.0,68.5 L330.6,68.9 L334.1,69.2 L337.6,69.3 L341.2,69.4 L344.7,69.1 L348.2,68.3 L351.8,67.2 L355.3,66.0 L358.9,65.1 L362.4,64.6 L365.9,65.0 L369.5,66.2 L373.0,68.2 L376.5,71.1 L380.1,74.3 L383.6,77.3 L387.2,79.4 L390.7,80.7 L394.2,81.1 L397.8,83.8 L401.3,89.3 L404.8,96.3 L408.4,104.1 L411.9,112.1 L415.5,119.9 L419.0,126.7 L422.5,132.1 L426.1,136.2 L429.6,139.1 L433.1,140.7 L436.7,141.6 L440.2,142.0 L443.8,142.3 L447.3,142.7 L450.8,142.7 L454.4,142.7 L457.9,142.7 L461.4,142.7 L465.0,142.7 L468.5,142.7 L472.1,142.7 L475.6,142.7 L479.1,142.7 L482.7,142.7 L486.2,142.7 L489.7,142.7 L493.3,142.7 L496.8,142.7 L500.4,142.7 L503.9,142.7 L507.4,142.7 L511.0,142.7 L514.5,142.7 L518.1,142.7 L521.6,142.7 L525.1,142.7 L528.7,142.7 L532.2,142.7 L535.7,142.5 L539.3,142.1 L542.8,141.4 L546.4,140.4 L549.9,139.0 L553.4,137.2 L557.0,135.1 L560.5,132.7 L564.0,130.3 L567.6,127.8 L571.1,125.6 L574.7,123.6 L578.2,122.0 L581.7,120.8 L585.3,119.9 L588.8,119.4 L592.3,119.1 L595.9,119.0 L599.4,118.8 L603.0,118.2 L606.5,117.3 L610.0,115.8 L613.6,113.8 L617.1,111.3 L620.6,108.3 L624.2,105.0 L627.7,101.6 L631.3,98.2 L634.8,95.1 L638.3,92.3 L641.9,90.1 L645.4,88.3 L648.9,87.1 L652.5,86.4 L656.0,86.0 L659.6,85.9 L663.1,85.5 L666.6,84.5 L670.2,82.8 L673.7,80.2 L677.2,76.9 L680.8,73.1 L684.3,69.3 L687.9,65.9 L691.4,63.2 L694.9,61.4 L698.5,60.3 L702.0,59.9 L705.5,59.9 L709.1,59.9 L712.6,59.9 L716.2,59.9 L719.7,59.9 L723.2,59.9 L726.8,59.9 L730.3,59.9 L733.8,59.9 L737.4,59.8 L740.9,59.7 L744.5,59.5 L748.0,59.2" fill="none" stroke="#ffffff" stroke-width="1.4"/>
<rect x="267.6" y="24" width="10" height="3" fill="#ffffff"/><text x="280.6" y="28" fill="#ffffff">final roll</text>
<path d="M178.4,88.3 L182.0,88.1 L185.5,87.9 L189.0,87.7 L192.6,87.3 L196.1,86.7 L199.7,86.3 L203.2,85.5 L206.7,85.0 L210.3,84.1 L213.8,83.4 L217.3,82.6 L220.9,81.6 L224.4,80.8 L228.0,79.9 L231.5,78.9 L235.0,78.0 L238.6,77.1 L242.1,76.2 L245.6,75.4 L249.2,74.5 L252.7,73.8 L256.3,73.2 L259.8,72.6 L263.3,72.2 L266.9,71.8 L270.4,71.6 L273.9,71.5 L277.5,71.5 L281.0,71.5 L284.6,71.5 L288.1,71.5 L291.6,71.5 L295.2,71.5 L298.7,71.5 L302.3,71.5 L305.8,71.5 L309.3,71.5 L312.9,71.5 L316.4,71.5 L319.9,71.5 L323.5,71.5 L327.0,71.5 L330.6,71.5 L334.1,71.5 L337.6,71.5 L341.2,71.5 L344.7,71.5 L348.2,71.5 L351.8,71.5 L355.3,71.5 L358.9,71.5 L362.4,71.5 L365.9,71.5 L369.5,71.5 L373.0,71.5 L376.5,71.5 L380.1,71.5 L383.6,71.5 L387.2,71.5 L390.7,71.5 L394.2,71.5 L397.8,71.5 L401.3,71.5 L404.8,71.5 L408.4,71.5 L411.9,71.5 L415.5,71.5 L419.0,71.5 L422.5,71.5 L426.1,71.5 L429.6,71.5 L433.1,71.5 L436.7,71.5 L440.2,71.5 L443.8,71.5 L447.3,71.5 L450.8,71.5 L454.4,71.5 L457.9,71.5 L461.4,71.5 L465.0,71.5 L468.5,71.5 L472.1,71.5 L475.6,71.5 L479.1,71.5 L482.7,71.5 L486.2,71.5 L489.7,71.5 L493.3,71.5 L496.8,71.5 L500.4,71.5 L503.9,71.5 L507.4,71.5 L511.0,71.5 L514.5,71.5 L518.1,71.5 L521.6,71.5 L525.1,71.5 L528.7,71.5 L532.2,71.5 L535.7,71.5 L539.3,71.5 L542.8,71.5 L546.4,71.5 L549.9,71.5 L553.4,71.5 L557.0,71.5 L560.5,71.5 L564.0,71.5 L567.6,71.5 L571.1,71.5 L574.7,71.5 L578.2,71.5 L581.7,71.5 L585.3,71.5 L588.8,71.5 L592.3,71.5 L595.9,71.5 L599.4,71.5 L603.0,71.5 L606.5,71.5 L610.0,71.5 L613.6,71.5 L617.1,71.5 L620.6,71.5 L624.2,71.5 L627.7,71.5 L631.3,71.5 L634.8,71.5 L638.3,71.5 L641.9,71.5 L645.4,71.5 L648.9,71.5 L652.5,71.5 L656.0,71.5 L659.6,71.5 L663.1,71.5 L666.6,71.5 L670.2,71.5 L673.7,71.5 L677.2,71.5 L680.8,71.5 L684.3,71.5 L687.9,71.5 L691.4,71.5 L694.9,71.5 L698.5,71.5 L702.0,71.5 L705.5,71.5 L709.1,71.5 L712.6,71.5 L716.2,71.5 L719.7,71.5 L723.2,71.5 L726.8,71.5 L730.3,71.5 L733.8,71.5 L737.4,71.5 L740.9,71.5 L744.5,71.5 L748.0,71.5" fill="none" stroke="#8ab4f8" stroke-width="1.4" stroke-dasharray="2,2"/>
<rect x="352.6" y="24" width="10" height="3" fill="#8ab4f8"/><text x="365.6" y="28" fill="#8ab4f8">axis theta (from vertical)</text>
</svg></g><g transform="translate(0,570)"><svg xmlns="http://www.w3.org/2000/svg" width="760" height="190" style="background:#0f1216;font-family:Menlo,monospace;font-size:10px">
<text x="44" y="13" fill="#ffdc78" font-size="11">42 S4 K2 high tip-up (POWER 28 m/s under the bar) (Courtois) — TORSO ASSIST (deg), IK residual (m×10), IK weight</text>
<line x1="277.5" y1="22" x2="277.5" y2="164" stroke="#3a4a5a" stroke-dasharray="3,3"/><text x="279.5" y="161" fill="#6f8aa5" font-size="8">FOLLOW</text>
<line x1="305.8" y1="22" x2="305.8" y2="164" stroke="#3a4a5a" stroke-dasharray="3,3"/><text x="307.8" y="161" fill="#6f8aa5" font-size="8">DESCENT</text>
<line x1="362.4" y1="22" x2="362.4" y2="164" stroke="#3a4a5a" stroke-dasharray="3,3"/><text x="364.4" y="161" fill="#6f8aa5" font-size="8">IMPACT</text>
<line x1="397.8" y1="22" x2="397.8" y2="164" stroke="#3a4a5a" stroke-dasharray="3,3"/><text x="399.8" y="161" fill="#6f8aa5" font-size="8">ABSORB</text>
<line x1="447.3" y1="22" x2="447.3" y2="164" stroke="#3a4a5a" stroke-dasharray="3,3"/><text x="449.3" y="161" fill="#6f8aa5" font-size="8">SETTLE</text>
<line x1="532.2" y1="22" x2="532.2" y2="164" stroke="#3a4a5a" stroke-dasharray="3,3"/><text x="534.2" y="161" fill="#6f8aa5" font-size="8">BRACE</text>
<line x1="595.9" y1="22" x2="595.9" y2="164" stroke="#3a4a5a" stroke-dasharray="3,3"/><text x="597.9" y="161" fill="#6f8aa5" font-size="8">PUSH_UP</text>
<line x1="659.6" y1="22" x2="659.6" y2="164" stroke="#3a4a5a" stroke-dasharray="3,3"/><text x="661.6" y="161" fill="#6f8aa5" font-size="8">HALF_KNEEL</text>
<line x1="733.8" y1="22" x2="733.8" y2="164" stroke="#3a4a5a" stroke-dasharray="3,3"/><text x="735.8" y="161" fill="#6f8aa5" font-size="8">CROUCH</text>
<line x1="178.4" y1="22" x2="178.4" y2="164" stroke="#5a6a3a"/><text x="180.4" y="31" fill="#5a6a3a" font-size="8" transform="rotate(90 180.4,31)">LOAD</text>
<line x1="182.0" y1="22" x2="182.0" y2="164" stroke="#5a6a3a"/><text x="184.0" y="31" fill="#5a6a3a" font-size="8" transform="rotate(90 184.0,31)">PLANT</text>
<line x1="192.6" y1="22" x2="192.6" y2="164" stroke="#5a6a3a"/><text x="194.6" y="31" fill="#5a6a3a" font-size="8" transform="rotate(90 194.6,31)">PUSH_MID</text>
<line x1="199.7" y1="22" x2="199.7" y2="164" stroke="#5a6a3a"/><text x="201.7" y="31" fill="#5a6a3a" font-size="8" transform="rotate(90 201.7,31)">PUSH_END</text>
<line x1="206.7" y1="22" x2="206.7" y2="164" stroke="#5a6a3a"/><text x="208.7" y="31" fill="#5a6a3a" font-size="8" transform="rotate(90 208.7,31)">TOE_OFF</text>
<line x1="220.9" y1="22" x2="220.9" y2="164" stroke="#5a6a3a"/><text x="222.9" y="31" fill="#5a6a3a" font-size="8" transform="rotate(90 222.9,31)">EARLY_FLIGHT</text>
<line x1="245.6" y1="22" x2="245.6" y2="164" stroke="#5a6a3a"/><text x="247.6" y="31" fill="#5a6a3a" font-size="8" transform="rotate(90 247.6,31)">MID_FLIGHT</text>
<line x1="263.3" y1="22" x2="263.3" y2="164" stroke="#ff5252"/><text x="265.3" y="31" fill="#ff5252" font-size="8" transform="rotate(90 265.3,31)">CONTACT</text>
<line x1="266.9" y1="22" x2="266.9" y2="164" stroke="#5a6a3a"/><text x="268.9" y="31" fill="#5a6a3a" font-size="8" transform="rotate(90 268.9,31)">FULL_EXTENSION</text>
<line x1="44" y1="164.0" x2="748" y2="164.0" stroke="#222a33"/><text x="2" y="167.0" fill="#8a97a6">-25.00</text>
<line x1="44" y1="128.5" x2="748" y2="128.5" stroke="#222a33"/><text x="2" y="131.5" fill="#8a97a6">-12.50</text>
<line x1="44" y1="93.0" x2="748" y2="93.0" stroke="#222a33"/><text x="2" y="96.0" fill="#8a97a6">0.00</text>
<line x1="44" y1="57.5" x2="748" y2="57.5" stroke="#222a33"/><text x="2" y="60.5" fill="#8a97a6">12.50</text>
<line x1="44" y1="22.0" x2="748" y2="22.0" stroke="#222a33"/><text x="2" y="25.0" fill="#8a97a6">25.00</text>
<text x="38.0" y="182" fill="#8a97a6">0</text>
<text x="108.8" y="182" fill="#8a97a6">20</text>
<text x="179.5" y="182" fill="#8a97a6">40</text>
<text x="250.3" y="182" fill="#8a97a6">60</text>
<text x="321.0" y="182" fill="#8a97a6">80</text>
<text x="391.8" y="182" fill="#8a97a6">100</text>
<text x="462.5" y="182" fill="#8a97a6">120</text>
<text x="533.3" y="182" fill="#8a97a6">140</text>
<text x="604.0" y="182" fill="#8a97a6">160</text>
<text x="674.8" y="182" fill="#8a97a6">180</text>
<text x="688" y="182" fill="#8a97a6">tick (60 Hz)</text><text x="2" y="18" fill="#8a97a6">deg / ×10 []</text>
<path d="M44.0,93.0 L47.5,93.0 L51.1,93.0 L54.6,93.0 L58.2,93.0 L61.7,93.0 L65.2,93.0 L68.8,93.0 L72.3,93.0 L75.8,93.0 L79.4,93.0 L82.9,93.0 L86.5,93.0 L90.0,93.0 L93.5,93.0 L97.1,93.0 L100.6,93.0 L104.1,93.0 L107.7,93.0 L111.2,93.0 L114.8,93.0 L118.3,93.0 L121.8,93.0 L125.4,93.0 L128.9,93.0 L132.4,93.0 L136.0,93.0 L139.5,93.0 L143.1,93.0 L146.6,93.0 L150.1,93.0 L153.7,93.0 L157.2,93.0 L160.7,93.0 L164.3,93.0 L167.8,93.0 L171.4,93.0 L174.9,93.0 L178.4,93.0 L182.0,93.0 L185.5,93.0 L189.0,93.0 L192.6,93.0 L196.1,93.0 L199.7,93.0 L203.2,93.0 L206.7,93.6 L210.3,96.1 L213.8,98.1 L217.3,99.5 L220.9,100.4 L224.4,101.2 L228.0,101.5 L231.5,102.1 L235.0,102.4 L238.6,103.2 L242.1,104.4 L245.6,105.5 L249.2,107.2 L252.7,109.2 L256.3,111.2 L259.8,112.9 L263.3,118.8 L266.9,118.8 L270.4,118.0 L273.9,116.3 L277.5,114.0 L281.0,112.6 L284.6,112.0 L288.1,112.0 L291.6,112.3 L295.2,112.9 L298.7,113.7 L302.3,114.3 L305.8,114.9 L309.3,115.4 L312.9,115.7 L316.4,116.0 L319.9,115.2 L323.5,112.3 L327.0,109.8 L330.6,106.9 L334.1,104.4 L337.6,101.5 L341.2,99.0 L344.7,96.1 L348.2,93.3 L351.8,93.0 L355.3,93.0 L358.9,93.0 L362.4,93.0 L365.9,93.0 L369.5,93.0 L373.0,93.0 L376.5,93.0 L380.1,93.0 L383.6,93.0 L387.2,93.0 L390.7,93.0 L394.2,93.0 L397.8,93.0 L401.3,93.0 L404.8,93.0 L408.4,93.0 L411.9,93.0 L415.5,93.0 L419.0,93.0 L422.5,93.0 L426.1,93.0 L429.6,93.0 L433.1,93.0 L436.7,93.0 L440.2,93.0 L443.8,93.0 L447.3,93.0 L450.8,93.0 L454.4,93.0 L457.9,93.0 L461.4,93.0 L465.0,93.0 L468.5,93.0 L472.1,93.0 L475.6,93.0 L479.1,93.0 L482.7,93.0 L486.2,93.0 L489.7,93.0 L493.3,93.0 L496.8,93.0 L500.4,93.0 L503.9,93.0 L507.4,93.0 L511.0,93.0 L514.5,93.0 L518.1,93.0 L521.6,93.0 L525.1,93.0 L528.7,93.0 L532.2,93.0 L535.7,93.0 L539.3,93.0 L542.8,93.0 L546.4,93.0 L549.9,93.0 L553.4,93.0 L557.0,93.0 L560.5,93.0 L564.0,93.0 L567.6,93.0 L571.1,93.0 L574.7,93.0 L578.2,93.0 L581.7,93.0 L585.3,93.0 L588.8,93.0 L592.3,93.0 L595.9,93.0 L599.4,93.0 L603.0,93.0 L606.5,93.0 L610.0,93.0 L613.6,93.0 L617.1,93.0 L620.6,93.0 L624.2,93.0 L627.7,93.0 L631.3,93.0 L634.8,93.0 L638.3,93.0 L641.9,93.0 L645.4,93.0 L648.9,93.0 L652.5,93.0 L656.0,93.0 L659.6,93.0 L663.1,93.0 L666.6,93.0 L670.2,93.0 L673.7,93.0 L677.2,93.0 L680.8,93.0 L684.3,93.0 L687.9,93.0 L691.4,93.0 L694.9,93.0 L698.5,93.0 L702.0,93.0 L705.5,93.0 L709.1,93.0 L712.6,93.0 L716.2,93.0 L719.7,93.0 L723.2,93.0 L726.8,93.0 L730.3,93.0 L733.8,93.0 L737.4,93.0 L740.9,93.0 L744.5,93.0 L748.0,93.0" fill="none" stroke="#ff7b72" stroke-width="1.4"/>
<rect x="48" y="24" width="10" height="3" fill="#ff7b72"/><text x="61" y="28" fill="#ff7b72">torso assist toward the target</text>
<path d="M206.7,51.1 L210.3,55.5 L213.8,59.8 L217.3,64.0 L220.9,67.9 L224.4,71.6 L228.0,74.9 L231.5,77.8 L235.0,80.4 L238.6,82.6 L242.1,84.5 L245.6,86.2 L249.2,87.3 L252.7,88.5 L256.3,89.4 L259.8,90.0 L263.3,91.2 L266.9,91.2 L270.4,91.2 L273.9,91.4 L277.5,91.4 L281.0,91.2 L284.6,90.7 L288.1,90.0 L291.6,89.2 L295.2,88.2 L298.7,87.1 L302.3,85.7 L305.8,84.3 L309.3,82.4 L312.9,80.3 L316.4,77.7 L319.9,74.8 L323.5,71.3 L327.0,67.6 L330.6,63.5 L334.1,59.3 L337.6,54.8 L341.2,50.2 L344.7,45.3 L348.2,40.5" fill="none" stroke="#79c0ff" stroke-width="1.4"/>
<rect x="257.0" y="24" width="10" height="3" fill="#79c0ff"/><text x="270.0" y="28" fill="#79c0ff">IK residual ×10</text>
<path d="M44.0,93.0 L47.5,93.0 L51.1,93.0 L54.6,93.0 L58.2,93.0 L61.7,93.0 L65.2,93.0 L68.8,93.0 L72.3,93.0 L75.8,93.0 L79.4,93.0 L82.9,93.0 L86.5,93.0 L90.0,93.0 L93.5,93.0 L97.1,93.0 L100.6,93.0 L104.1,93.0 L107.7,93.0 L111.2,93.0 L114.8,93.0 L118.3,93.0 L121.8,93.0 L125.4,93.0 L128.9,93.0 L132.4,93.0 L136.0,93.0 L139.5,93.0 L143.1,93.0 L146.6,93.0 L150.1,93.0 L153.7,93.0 L157.2,93.0 L160.7,93.0 L164.3,93.0 L167.8,93.0 L171.4,93.0 L174.9,93.0 L178.4,93.0 L182.0,93.0 L185.5,93.0 L189.0,93.0 L192.6,93.0 L196.1,93.0 L199.7,93.0 L203.2,93.0 L206.7,92.7 L210.3,91.2 L213.8,89.8 L217.3,88.3 L220.9,86.8 L224.4,85.3 L228.0,83.9 L231.5,82.4 L235.0,80.9 L238.6,79.5 L242.1,78.0 L245.6,76.6 L249.2,75.1 L252.7,73.6 L256.3,72.1 L259.8,70.7 L263.3,64.6 L266.9,64.6 L270.4,64.6 L273.9,64.6 L277.5,65.7 L281.0,67.1 L284.6,68.4 L288.1,69.8 L291.6,71.2 L295.2,72.5 L298.7,73.9 L302.3,75.2 L305.8,76.6 L309.3,77.9 L312.9,79.3 L316.4,80.6 L319.9,82.0 L323.5,83.3 L327.0,84.7 L330.6,86.0 L334.1,87.4 L337.6,88.7 L341.2,90.1 L344.7,91.4 L348.2,92.8 L351.8,93.0 L355.3,93.0 L358.9,93.0 L362.4,93.0 L365.9,93.0 L369.5,93.0 L373.0,93.0 L376.5,93.0 L380.1,93.0 L383.6,93.0 L387.2,93.0 L390.7,93.0 L394.2,93.0 L397.8,93.0 L401.3,93.0 L404.8,93.0 L408.4,93.0 L411.9,93.0 L415.5,93.0 L419.0,93.0 L422.5,93.0 L426.1,93.0 L429.6,93.0 L433.1,93.0 L436.7,93.0 L440.2,93.0 L443.8,93.0 L447.3,93.0 L450.8,93.0 L454.4,93.0 L457.9,93.0 L461.4,93.0 L465.0,93.0 L468.5,93.0 L472.1,93.0 L475.6,93.0 L479.1,93.0 L482.7,93.0 L486.2,93.0 L489.7,93.0 L493.3,93.0 L496.8,93.0 L500.4,93.0 L503.9,93.0 L507.4,93.0 L511.0,93.0 L514.5,93.0 L518.1,93.0 L521.6,93.0 L525.1,93.0 L528.7,93.0 L532.2,93.0 L535.7,93.0 L539.3,93.0 L542.8,93.0 L546.4,93.0 L549.9,93.0 L553.4,93.0 L557.0,93.0 L560.5,93.0 L564.0,93.0 L567.6,93.0 L571.1,93.0 L574.7,93.0 L578.2,93.0 L581.7,93.0 L585.3,93.0 L588.8,93.0 L592.3,93.0 L595.9,93.0 L599.4,93.0 L603.0,93.0 L606.5,93.0 L610.0,93.0 L613.6,93.0 L617.1,93.0 L620.6,93.0 L624.2,93.0 L627.7,93.0 L631.3,93.0 L634.8,93.0 L638.3,93.0 L641.9,93.0 L645.4,93.0 L648.9,93.0 L652.5,93.0 L656.0,93.0 L659.6,93.0 L663.1,93.0 L666.6,93.0 L670.2,93.0 L673.7,93.0 L677.2,93.0 L680.8,93.0 L684.3,93.0 L687.9,93.0 L691.4,93.0 L694.9,93.0 L698.5,93.0 L702.0,93.0 L705.5,93.0 L709.1,93.0 L712.6,93.0 L716.2,93.0 L719.7,93.0 L723.2,93.0 L726.8,93.0 L730.3,93.0 L733.8,93.0 L737.4,93.0 L740.9,93.0 L744.5,93.0 L748.0,93.0" fill="none" stroke="#81c995" stroke-width="1.4" stroke-dasharray="2,2"/>
<rect x="373.0" y="24" width="10" height="3" fill="#81c995"/><text x="386.0" y="28" fill="#81c995">IK weight ×10</text>
<path d="M44.0,89.8 L47.5,89.8 L51.1,89.8 L54.6,89.8 L58.2,89.8 L61.7,89.8 L65.2,89.8 L68.8,90.3 L72.3,90.1 L75.8,90.0 L79.4,89.9 L82.9,89.8 L86.5,89.8 L90.0,89.8 L93.5,89.8 L97.1,89.8 L100.6,89.8 L104.1,89.8 L107.7,89.8 L111.2,89.8 L114.8,89.8 L118.3,89.8 L121.8,89.8 L125.4,89.8 L128.9,89.8 L132.4,89.8 L136.0,89.8 L139.5,89.8 L143.1,89.8 L146.6,89.8 L150.1,89.8 L153.7,89.8 L157.2,89.8 L160.7,89.8 L164.3,89.8 L167.8,89.8 L171.4,89.8 L174.9,89.8 L178.4,89.8 L182.0,89.8 L185.5,89.8 L189.0,89.8 L192.6,90.3 L196.1,90.2 L199.7,90.1 L203.2,90.0 L206.7,90.0 L210.3,89.9 L213.8,89.8 L217.3,90.0 L220.9,90.6 L224.4,89.7 L228.0,88.1 L231.5,86.7 L235.0,85.5 L238.6,84.3 L242.1,83.2 L245.6,82.2 L249.2,81.3 L252.7,80.4 L256.3,79.6 L259.8,78.9 L263.3,78.3 L266.9,77.7 L270.4,77.2 L273.9,76.9 L277.5,76.6 L281.0,76.3 L284.6,76.2 L288.1,76.1 L291.6,76.1 L295.2,76.1 L298.7,76.2 L302.3,76.4 L305.8,76.7 L309.3,77.1 L312.9,77.5 L316.4,78.0 L319.9,78.6 L323.5,79.3 L327.0,80.1 L330.6,80.9 L334.1,81.8 L337.6,82.8 L341.2,83.9 L344.7,85.0 L348.2,86.3 L351.8,87.6 L355.3,88.9 L358.9,89.1 L362.4,89.1 L365.9,89.1 L369.5,89.1 L373.0,89.2 L376.5,89.3 L380.1,89.3 L383.6,89.4 L387.2,89.5 L390.7,89.6 L394.2,89.7 L397.8,89.7 L401.3,89.9 L404.8,89.8 L408.4,89.4 L411.9,89.1 L415.5,89.0 L419.0,89.2 L422.5,89.6 L426.1,89.8 L429.6,89.8 L433.1,89.8 L436.7,89.8 L440.2,89.8 L443.8,89.8 L447.3,89.8 L450.8,89.0 L454.4,88.3 L457.9,87.8 L461.4,87.3 L465.0,87.0 L468.5,86.9 L472.1,87.0 L475.6,87.3 L479.1,87.8 L482.7,88.3 L486.2,89.0 L489.7,89.8 L493.3,89.8 L496.8,89.8 L500.4,89.8 L503.9,89.8 L507.4,89.8 L511.0,89.8 L514.5,89.8 L518.1,89.8 L521.6,89.8 L525.1,89.8 L528.7,89.8 L532.2,89.8 L535.7,89.8 L539.3,89.8 L542.8,89.8 L546.4,89.8 L549.9,89.8 L553.4,89.8 L557.0,89.8 L560.5,89.8 L564.0,89.8 L567.6,89.8 L571.1,89.8 L574.7,89.8 L578.2,89.8 L581.7,89.8 L585.3,89.8 L588.8,89.8 L592.3,89.8 L595.9,89.8 L599.4,89.8 L603.0,89.8 L606.5,89.8 L610.0,89.8 L613.6,89.8 L617.1,89.8 L620.6,89.8 L624.2,89.8 L627.7,89.8 L631.3,89.8 L634.8,89.8 L638.3,89.8 L641.9,89.8 L645.4,89.8 L648.9,89.8 L652.5,89.8 L656.0,89.8 L659.6,89.8 L663.1,89.8 L666.6,89.7 L670.2,89.6 L673.7,89.4 L677.2,89.0 L680.8,88.5 L684.3,87.9 L687.9,86.8 L691.4,86.1 L694.9,85.8 L698.5,85.5 L702.0,85.3 L705.5,85.3 L709.1,85.3 L712.6,85.3 L716.2,85.3 L719.7,85.3 L723.2,85.3 L726.8,85.3 L730.3,85.3 L733.8,85.3 L737.4,84.6 L740.9,84.2 L744.5,84.0 L748.0,84.0" fill="none" stroke="#fdd663" stroke-width="1.4" stroke-dasharray="1,2"/>
<rect x="476.6" y="24" width="10" height="3" fill="#fdd663"/><text x="489.6" y="28" fill="#fdd663">foot R height ×10</text>
<path d="M44.0,89.8 L47.5,89.8 L51.1,89.8 L54.6,89.8 L58.2,89.8 L61.7,89.8 L65.2,89.8 L68.8,90.3 L72.3,90.1 L75.8,90.0 L79.4,89.9 L82.9,89.8 L86.5,89.8 L90.0,89.8 L93.5,89.8 L97.1,89.8 L100.6,89.8 L104.1,89.8 L107.7,89.8 L111.2,89.8 L114.8,89.8 L118.3,89.8 L121.8,89.8 L125.4,89.8 L128.9,89.8 L132.4,89.8 L136.0,89.8 L139.5,89.8 L143.1,89.8 L146.6,89.8 L150.1,89.8 L153.7,89.8 L157.2,89.8 L160.7,89.8 L164.3,89.8 L167.8,89.8 L171.4,89.8 L174.9,89.8 L178.4,89.8 L182.0,89.8 L185.5,89.8 L189.0,89.8 L192.6,89.8 L196.1,87.1 L199.7,86.8 L203.2,86.2 L206.7,84.2 L210.3,83.1 L213.8,82.0 L217.3,81.2 L220.9,80.6 L224.4,79.9 L228.0,79.3 L231.5,78.6 L235.0,77.9 L238.6,77.1 L242.1,76.4 L245.6,75.7 L249.2,75.1 L252.7,74.5 L256.3,74.0 L259.8,73.5 L263.3,73.1 L266.9,72.7 L270.4,72.3 L273.9,72.0 L277.5,71.8 L281.0,71.7 L284.6,71.7 L288.1,71.7 L291.6,71.9 L295.2,72.1 L298.7,72.4 L302.3,72.7 L305.8,73.0 L309.3,73.3 L312.9,73.6 L316.4,73.9 L319.9,74.3 L323.5,74.6 L327.0,74.9 L330.6,75.4 L334.1,75.9 L337.6,76.5 L341.2,77.4 L344.7,78.4 L348.2,79.9 L351.8,81.7 L355.3,83.6 L358.9,85.5 L362.4,85.5 L365.9,84.9 L369.5,84.4 L373.0,84.2 L376.5,84.2 L380.1,84.4 L383.6,84.8 L387.2,85.4 L390.7,86.2 L394.2,87.1 L397.8,88.0 L401.3,88.9 L404.8,89.3 L408.4,88.6 L411.9,86.8 L415.5,84.0 L419.0,82.2 L422.5,81.4 L426.1,80.7 L429.6,80.3 L433.1,80.0 L436.7,79.8 L440.2,79.7 L443.8,79.4 L447.3,79.4 L450.8,78.9 L454.4,78.8 L457.9,79.0 L461.4,79.7 L465.0,80.6 L468.5,81.8 L472.1,83.1 L475.6,84.6 L479.1,86.1 L482.7,87.6 L486.2,88.8 L489.7,89.8 L493.3,89.8 L496.8,89.8 L500.4,89.8 L503.9,89.8 L507.4,89.8 L511.0,89.8 L514.5,89.8 L518.1,89.8 L521.6,89.8 L525.1,89.8 L528.7,89.8 L532.2,89.8 L535.7,89.8 L539.3,89.8 L542.8,89.8 L546.4,89.8 L549.9,89.8 L553.4,89.8 L557.0,89.8 L560.5,89.8 L564.0,89.8 L567.6,89.8 L571.1,89.8 L574.7,89.8 L578.2,89.8 L581.7,89.8 L585.3,89.8 L588.8,89.8 L592.3,89.8 L595.9,89.8 L599.4,89.8 L603.0,89.8 L606.5,89.8 L610.0,89.8 L613.6,89.8 L617.1,89.8 L620.6,89.8 L624.2,89.8 L627.7,89.8 L631.3,89.8 L634.8,89.8 L638.3,89.8 L641.9,89.8 L645.4,89.8 L648.9,89.8 L652.5,89.8 L656.0,89.8 L659.6,89.8 L663.1,89.0 L666.6,88.3 L670.2,87.8 L673.7,87.3 L677.2,87.0 L680.8,86.9 L684.3,87.0 L687.9,87.3 L691.4,87.8 L694.9,88.3 L698.5,89.0 L702.0,89.8 L705.5,89.8 L709.1,89.8 L712.6,89.8 L716.2,89.8 L719.7,89.8 L723.2,89.8 L726.8,89.8 L730.3,89.8 L733.8,89.8 L737.4,89.0 L740.9,88.3 L744.5,87.8 L748.0,87.3" fill="none" stroke="#f28b82" stroke-width="1.4" stroke-dasharray="1,2"/>
<rect x="605.0" y="24" width="10" height="3" fill="#f28b82"/><text x="618.0" y="28" fill="#f28b82">foot L height ×10</text>
</svg></g></svg>